<svg width="101" height="30" viewBox="0 0 101 30" fill="none" xmlns="http://www.w3.org/2000/svg">
<path fill-rule="evenodd" clip-rule="evenodd" d="M5.6517 0C2.91706 0 0.700195 2.21686 0.700195 4.9515V24.8406C0.700195 27.5753 2.91706 29.7921 5.6517 29.7921H96.0488C98.7835 29.7921 101 27.5753 101 24.8406V4.9515C101 2.21686 98.7835 0 96.0488 0H5.6517Z" fill="#282828"/>
<path fill-rule="evenodd" clip-rule="evenodd" d="M27.7948 14.339C27.7769 12.3481 29.425 11.3795 29.5004 11.3344C28.567 9.97356 27.1203 9.78763 26.6119 9.7728C25.3968 9.64493 24.2182 10.4999 23.5993 10.4999C22.9679 10.4999 22.0148 9.78516 20.9875 9.80616C19.6656 9.82654 18.4289 10.5919 17.7507 11.7804C16.3509 14.2037 17.3949 17.7649 18.7359 19.7237C19.4068 20.683 20.1907 21.7541 21.2167 21.7165C22.2205 21.6751 22.5955 21.0765 23.8068 21.0765C25.007 21.0765 25.3591 21.7165 26.4056 21.6924C27.4829 21.6751 28.1611 20.7287 28.8085 19.7607C29.5837 18.6612 29.8951 17.5783 29.9074 17.5227C29.8821 17.5141 27.8152 16.7253 27.7948 14.339Z" fill="white"/>
<path fill-rule="evenodd" clip-rule="evenodd" d="M25.8187 8.48387C26.3586 7.8087 26.728 6.89015 26.6254 5.95801C25.844 5.9926 24.8668 6.49851 24.304 7.15886C23.8062 7.74075 23.3614 8.69452 23.4763 9.59145C24.3541 9.65693 25.2553 9.14854 25.8187 8.48387Z" fill="white"/>
<path fill-rule="evenodd" clip-rule="evenodd" d="M42.3219 21.5781H40.9191L40.1507 19.1634H37.4796L36.7476 21.5781H35.3818L38.0282 13.3574H39.6627L42.3219 21.5781ZM39.9193 18.1505L39.2243 16.0039C39.1508 15.7846 39.0131 15.2682 38.8098 14.4553H38.7851C38.7042 14.8049 38.5739 15.3213 38.3947 16.0039L37.7121 18.1505H39.9193Z" fill="white"/>
<path fill-rule="evenodd" clip-rule="evenodd" d="M49.1273 18.5419C49.1273 19.55 48.8549 20.3469 48.3101 20.9319C47.8221 21.4526 47.2161 21.7127 46.4927 21.7127C45.7119 21.7127 45.151 21.4322 44.8094 20.8714H44.7847V23.9939H43.4677V17.6024C43.4677 16.9686 43.4511 16.3181 43.4189 15.651H44.5772L44.6507 16.5905H44.6754C45.1146 15.8826 45.7811 15.5293 46.6756 15.5293C47.3748 15.5293 47.9586 15.8054 48.4256 16.3583C48.8938 16.9118 49.1273 17.6394 49.1273 18.5419ZM47.7855 18.5902C47.7855 18.0132 47.6558 17.5376 47.3951 17.1632C47.1104 16.7728 46.728 16.5776 46.2486 16.5776C45.9237 16.5776 45.6284 16.6863 45.3647 16.9007C45.1003 17.1169 44.9273 17.3992 44.8464 17.7488C44.8056 17.9119 44.7853 18.0453 44.7853 18.1503V19.1387C44.7853 19.5699 44.9175 19.9337 45.1818 20.2308C45.4462 20.528 45.7897 20.6762 46.2122 20.6762C46.7082 20.6762 47.0943 20.4847 47.3704 20.103C47.6472 19.7206 47.7855 19.2165 47.7855 18.5902Z" fill="white"/>
<path fill-rule="evenodd" clip-rule="evenodd" d="M55.9451 18.5419C55.9451 19.55 55.6726 20.3469 55.1272 20.9319C54.6398 21.4526 54.0338 21.7127 53.3105 21.7127C52.5297 21.7127 51.9688 21.4322 51.6278 20.8714H51.6031V23.9939H50.2861V17.6024C50.2861 16.9686 50.2694 16.3181 50.2373 15.651H51.3955L51.469 16.5905H51.4938C51.9323 15.8826 52.5989 15.5293 53.4939 15.5293C54.1926 15.5293 54.7763 15.8054 55.2446 16.3583C55.7109 16.9118 55.9451 17.6394 55.9451 18.5419ZM54.6035 18.5902C54.6035 18.0132 54.4731 17.5376 54.2125 17.1632C53.9277 16.7728 53.5466 16.5776 53.0666 16.5776C52.741 16.5776 52.4464 16.6863 52.182 16.9007C51.9176 17.1169 51.7453 17.3992 51.6644 17.7488C51.6242 17.9119 51.6032 18.0453 51.6032 18.1503V19.1387C51.6032 19.5699 51.7354 19.9337 51.9985 20.2308C52.2629 20.5273 52.6064 20.6762 53.0301 20.6762C53.5262 20.6762 53.9122 20.4847 54.1884 20.103C54.4651 19.7206 54.6035 19.2165 54.6035 18.5902Z" fill="white"/>
<path fill-rule="evenodd" clip-rule="evenodd" d="M63.5677 19.2731C63.5677 19.9723 63.3249 20.5412 62.8375 20.9804C62.302 21.4604 61.5564 21.7001 60.5983 21.7001C59.7137 21.7001 59.0046 21.5296 58.4678 21.188L58.7729 20.0903C59.3511 20.4399 59.9855 20.6154 60.6767 20.6154C61.1728 20.6154 61.5589 20.503 61.8362 20.2793C62.1123 20.0557 62.2501 19.7555 62.2501 19.3812C62.2501 19.0476 62.1364 18.7665 61.9085 18.5386C61.6818 18.3107 61.3031 18.0988 60.7743 17.903C59.3351 17.3662 58.616 16.5798 58.616 15.5457C58.616 14.8699 58.8681 14.3158 59.3727 13.8847C59.8756 13.4529 60.5464 13.2373 61.3853 13.2373C62.1333 13.2373 62.7548 13.3676 63.2508 13.6277L62.9215 14.7013C62.4583 14.4493 61.9344 14.3233 61.3482 14.3233C60.8849 14.3233 60.5229 14.4375 60.2635 14.6649C60.0442 14.8681 59.9342 15.1158 59.9342 15.4092C59.9342 15.7341 60.0596 16.0028 60.3117 16.2141C60.531 16.4093 60.9294 16.6206 61.5076 16.8485C62.2149 17.1333 62.7344 17.4662 63.0686 17.848C63.4015 18.2285 63.5677 18.7048 63.5677 19.2731Z" fill="white"/>
<path fill-rule="evenodd" clip-rule="evenodd" d="M67.9225 16.6392H66.4708V19.5171C66.4708 20.2491 66.7266 20.6148 67.2393 20.6148C67.4746 20.6148 67.6698 20.5944 67.8243 20.5537L67.8607 21.5538C67.6013 21.6507 67.2597 21.6995 66.8365 21.6995C66.3164 21.6995 65.9099 21.5408 65.6165 21.2239C65.3243 20.9064 65.1773 20.3739 65.1773 19.6258V16.6379H64.3125V15.6496H65.1773V14.5642L66.4708 14.1738V15.6496H67.9225V16.6392Z" fill="white"/>
<path fill-rule="evenodd" clip-rule="evenodd" d="M74.472 18.5654C74.472 19.4765 74.2113 20.2246 73.6912 20.8096C73.1457 21.4119 72.4218 21.7121 71.5193 21.7121C70.6495 21.7121 69.9571 21.4236 69.4406 20.8466C68.9242 20.2697 68.666 19.5414 68.666 18.6636C68.666 17.7451 68.9316 16.9927 69.4647 16.4077C69.9966 15.8221 70.7144 15.5293 71.6169 15.5293C72.4866 15.5293 73.1865 15.8178 73.7147 16.3953C74.22 16.9556 74.472 17.679 74.472 18.5654ZM73.106 18.6082C73.106 18.0615 72.9892 17.5926 72.7526 17.2016C72.4765 16.7285 72.0818 16.4925 71.5703 16.4925C71.0409 16.4925 70.6388 16.7291 70.3627 17.2016C70.1261 17.5933 70.0093 18.0695 70.0093 18.6329C70.0093 19.1796 70.1261 19.6484 70.3627 20.0388C70.6474 20.512 71.0452 20.748 71.5586 20.748C72.0614 20.748 72.4561 20.5071 72.7409 20.0265C72.9837 19.628 73.106 19.1542 73.106 18.6082Z" fill="white"/>
<path fill-rule="evenodd" clip-rule="evenodd" d="M78.7524 16.8092C78.6221 16.7851 78.4831 16.7728 78.3373 16.7728C77.874 16.7728 77.5158 16.9476 77.2637 17.2978C77.0444 17.6067 76.9345 17.9971 76.9345 18.4684V21.5786H75.6181L75.6305 17.5177C75.6305 16.8345 75.6138 16.2125 75.5811 15.6516H76.7282L76.7763 16.7857H76.8128C76.9518 16.396 77.1711 16.0822 77.4713 15.8468C77.7647 15.6349 78.0816 15.5293 78.4232 15.5293C78.5449 15.5293 78.6548 15.5379 78.7524 15.5534V16.8092Z" fill="white"/>
<path fill-rule="evenodd" clip-rule="evenodd" d="M84.6429 18.3338C84.6429 18.5697 84.6275 18.7686 84.5948 18.9311H80.6438C80.6592 19.5167 80.8501 19.9646 81.217 20.2734C81.55 20.5495 81.9806 20.6879 82.5093 20.6879C83.0943 20.6879 83.628 20.5946 84.108 20.4075L84.3143 21.3217C83.7534 21.5663 83.0912 21.688 82.3271 21.688C81.4079 21.688 80.6864 21.4174 80.1614 20.8769C79.6375 20.3364 79.375 19.6106 79.375 18.7001C79.375 17.8062 79.619 17.0619 80.1076 16.4683C80.6191 15.8345 81.3103 15.5176 82.1801 15.5176C83.0344 15.5176 83.6811 15.8345 84.1203 16.4683C84.4681 16.9717 84.6429 17.5944 84.6429 18.3338ZM83.3872 17.9924C83.3958 17.602 83.31 17.2648 83.1314 16.98C82.9035 16.6137 82.5533 16.4308 82.0819 16.4308C81.6514 16.4308 81.3011 16.6094 81.0337 16.9676C80.8144 17.2524 80.684 17.594 80.6439 17.9918H83.3872V17.9924Z" fill="white"/>
<path d="M37.7218 10.487C38.3673 10.487 38.7794 10.2537 39.1319 9.87132L38.7397 9.47409C38.4417 9.75215 38.1637 9.92098 37.7416 9.92098C37.0763 9.92098 36.5946 9.36982 36.5946 8.68957V8.67964C36.5946 7.99938 37.0812 7.45816 37.7367 7.45816C38.1389 7.45816 38.4318 7.62698 38.7148 7.88518L39.1071 7.43333C38.7744 7.11555 38.3871 6.89211 37.7416 6.89211C36.6939 6.89211 35.9541 7.70146 35.9541 8.68957V8.6995C35.9541 9.69754 36.7088 10.487 37.7218 10.487Z" fill="white"/>
<path d="M40.907 10.487C41.7164 10.487 42.3122 9.86139 42.3122 9.12155V9.11162C42.3122 8.36186 41.7263 7.75112 40.9169 7.75112C40.1125 7.75112 39.5167 8.37179 39.5167 9.12155V9.13148C39.5167 9.87629 40.1076 10.487 40.907 10.487ZM40.9169 9.9607C40.4552 9.9607 40.1175 9.57837 40.1175 9.12155V9.11162C40.1175 8.65481 40.4254 8.27744 40.907 8.27744C41.3787 8.27744 41.7114 8.65978 41.7114 9.12155V9.13148C41.7114 9.58333 41.4085 9.9607 40.9169 9.9607Z" fill="white"/>
<path d="M42.9191 10.4274H43.5249V8.94777C43.5249 8.54557 43.7483 8.2973 44.086 8.2973C44.4236 8.2973 44.6172 8.52075 44.6172 8.93287V10.4274H45.2181V8.94777C45.2181 8.52571 45.4465 8.2973 45.7791 8.2973C46.1168 8.2973 46.3104 8.52075 46.3104 8.93784V10.4274H46.9112V8.75412C46.9112 8.11359 46.5686 7.75112 45.9926 7.75112C45.5954 7.75112 45.3223 7.93483 45.1088 8.21289C44.9698 7.93483 44.7017 7.75112 44.3243 7.75112C43.9221 7.75112 43.6937 7.96959 43.5249 8.20296V7.80573H42.9191V10.4274Z" fill="white"/>
<path d="M47.6472 7.40354H48.2927V6.83253H47.6472V7.40354ZM47.6671 10.4274H48.2728V7.80573H47.6671V10.4274Z" fill="white"/>
<path d="M49.0531 10.4274H49.6588V8.94777C49.6588 8.53564 49.8972 8.2973 50.2497 8.2973C50.6072 8.2973 50.8108 8.52571 50.8108 8.93784V10.4274H51.4116V8.75412C51.4116 8.14338 51.074 7.75112 50.4781 7.75112C50.066 7.75112 49.8326 7.96463 49.6588 8.20793V7.80573H49.0531V10.4274Z" fill="white"/>
<path d="M53.304 11.2318C53.7806 11.2318 54.1431 11.1176 54.3815 10.8793C54.6049 10.6558 54.7141 10.3281 54.7141 9.89118V7.80573H54.1133V8.198C53.9097 7.9547 53.6367 7.75112 53.1947 7.75112C52.579 7.75112 52.0031 8.20793 52.0031 8.98252V8.99246C52.0031 9.76208 52.5741 10.2189 53.1947 10.2189C53.6267 10.2189 53.8998 10.0203 54.1183 9.74222V9.94084C54.1183 10.4721 53.8253 10.7403 53.2891 10.7403C52.9316 10.7403 52.6386 10.641 52.3556 10.4672L52.1322 10.919C52.4748 11.1276 52.867 11.2318 53.304 11.2318ZM53.3536 9.70747C52.9415 9.70747 52.6088 9.41451 52.6088 8.98749V8.97756C52.6088 8.54557 52.9365 8.26255 53.3536 8.26255C53.7707 8.26255 54.1233 8.5555 54.1233 8.97756V8.98749C54.1233 9.41451 53.7707 9.70747 53.3536 9.70747Z" fill="white"/>
<path d="M57.8557 10.4771C58.4019 10.4771 58.8289 10.204 58.8289 9.65285V9.64292C58.8289 9.17121 58.392 8.99742 58.0146 8.87825C57.7068 8.78391 57.4237 8.69453 57.4237 8.50585V8.49592C57.4237 8.35192 57.5578 8.23772 57.7912 8.23772C58.0097 8.23772 58.2778 8.33206 58.531 8.48599L58.7694 8.05897C58.4913 7.87525 58.1388 7.76105 57.8061 7.76105C57.2847 7.76105 56.8726 8.06393 56.8726 8.56543V8.57537C56.8726 9.0719 57.3095 9.23576 57.6919 9.34003C57.9997 9.43437 58.2778 9.50885 58.2778 9.70747V9.7174C58.2778 9.89118 58.1288 10.0004 57.8706 10.0004C57.5975 10.0004 57.3046 9.89118 57.0116 9.67767L56.7435 10.0848C57.0762 10.348 57.4784 10.4771 57.8557 10.4771Z" fill="white"/>
<path d="M60.6908 10.487C61.5002 10.487 62.096 9.86139 62.096 9.12155V9.11162C62.096 8.36186 61.5101 7.75112 60.7008 7.75112C59.8964 7.75112 59.3005 8.37179 59.3005 9.12155V9.13148C59.3005 9.87629 59.8914 10.487 60.6908 10.487ZM60.7008 9.9607C60.239 9.9607 59.9013 9.57837 59.9013 9.12155V9.11162C59.9013 8.65481 60.2092 8.27744 60.6908 8.27744C61.1625 8.27744 61.4952 8.65978 61.4952 9.12155V9.13148C61.4952 9.58333 61.1923 9.9607 60.7008 9.9607Z" fill="white"/>
<path d="M63.9542 10.487C64.7635 10.487 65.3594 9.86139 65.3594 9.12155V9.11162C65.3594 8.36186 64.7735 7.75112 63.9641 7.75112C63.1597 7.75112 62.5639 8.37179 62.5639 9.12155V9.13148C62.5639 9.87629 63.1548 10.487 63.9542 10.487ZM63.9641 9.9607C63.5023 9.9607 63.1647 9.57837 63.1647 9.12155V9.11162C63.1647 8.65481 63.4726 8.27744 63.9542 8.27744C64.4259 8.27744 64.7586 8.65978 64.7586 9.12155V9.13148C64.7586 9.58333 64.4557 9.9607 63.9641 9.9607Z" fill="white"/>
<path d="M65.9663 10.4274H66.5721V8.94777C66.5721 8.53564 66.8104 8.2973 67.1629 8.2973C67.5204 8.2973 67.724 8.52571 67.724 8.93784V10.4274H68.3248V8.75412C68.3248 8.14338 67.9872 7.75112 67.3913 7.75112C66.9792 7.75112 66.7458 7.96463 66.5721 8.20793V7.80573H65.9663V10.4274Z" fill="white"/>
<path d="M71.4179 10.4721C71.6512 10.4721 71.8052 10.4225 71.9591 10.3381V9.8465C71.8399 9.90608 71.7158 9.93587 71.5867 9.93587C71.3831 9.93587 71.2639 9.84153 71.2639 9.60816V8.32213H71.969V7.80573H71.2639V7.08576H70.6631V7.80573H70.3304V8.32213H70.6631V9.7025C70.6631 10.2785 70.9759 10.4721 71.4179 10.4721Z" fill="white"/>
<path d="M73.754 10.487C74.5633 10.487 75.1592 9.86139 75.1592 9.12155V9.11162C75.1592 8.36186 74.5733 7.75112 73.7639 7.75112C72.9595 7.75112 72.3637 8.37179 72.3637 9.12155V9.13148C72.3637 9.87629 72.9546 10.487 73.754 10.487ZM73.7639 9.9607C73.3021 9.9607 72.9645 9.57837 72.9645 9.12155V9.11162C72.9645 8.65481 73.2723 8.27744 73.754 8.27744C74.2257 8.27744 74.5584 8.65978 74.5584 9.12155V9.13148C74.5584 9.58333 74.2555 9.9607 73.7639 9.9607Z" fill="white"/>
<path d="M78.1385 10.4721C78.3719 10.4721 78.5258 10.4225 78.6798 10.3381V9.8465C78.5606 9.90608 78.4365 9.93587 78.3074 9.93587C78.1038 9.93587 77.9846 9.84153 77.9846 9.60816V8.32213H78.6897V7.80573H77.9846V7.08576H77.3838V7.80573H77.0511V8.32213H77.3838V9.7025C77.3838 10.2785 77.6966 10.4721 78.1385 10.4721Z" fill="white"/>
<path d="M79.2961 10.4274H79.9019V8.94777C79.9019 8.53564 80.1402 8.2973 80.4928 8.2973C80.8503 8.2973 81.0539 8.52571 81.0539 8.93784V10.4274H81.6547V8.75412C81.6547 8.14338 81.317 7.75112 80.7212 7.75112C80.3091 7.75112 80.0757 7.96463 79.9019 8.20793V6.80273H79.2961V10.4274Z" fill="white"/>
<path d="M83.5818 10.487C84.0634 10.487 84.4011 10.2934 84.6543 9.99546L84.3018 9.68264C84.0883 9.88622 83.8897 9.99546 83.5917 9.99546C83.1995 9.99546 82.9016 9.76208 82.837 9.3301H84.7636C84.7685 9.27051 84.7735 9.2159 84.7735 9.16128C84.7735 8.40654 84.3514 7.75112 83.5173 7.75112C82.7675 7.75112 82.2362 8.36186 82.2362 9.11659V9.12652C82.2362 9.93587 82.8271 10.487 83.5818 10.487ZM82.832 8.93287C82.8867 8.52075 83.1399 8.24269 83.5123 8.24269C83.9095 8.24269 84.1379 8.55054 84.1777 8.93287H82.832Z" fill="white"/>
</svg>
