<svg width="18" height="9" viewBox="0 0 18 9" fill="none" xmlns="http://www.w3.org/2000/svg">
<path fill-rule="evenodd" clip-rule="evenodd" d="M13.0815 8.84855C12.8075 9.07398 12.3942 9.04435 12.1584 8.78235C11.9226 8.52036 11.9536 8.12522 12.2276 7.89978L15.6268 5.10325H0.610337C0.273257 5.10325 0 4.83 0 4.49292C0 4.15584 0.273257 3.88258 0.610336 3.88258H15.5836L12.2257 1.09866C11.9526 0.87223 11.9232 0.476979 12.16 0.215843C12.3969 -0.0452913 12.8102 -0.0734228 13.0834 0.15301L17.7743 4.04207C17.918 4.16121 18.0004 4.33423 18 4.51609C17.9996 4.69795 17.9166 4.87067 17.7724 4.98928L13.0815 8.84855Z" fill="#F05835"/>
</svg>
