<svg width="16" height="16" viewBox="0 0 16 16" fill="none" xmlns="http://www.w3.org/2000/svg">
<path d="M16 7.99957C16 7.02101 15.824 6.08361 15.5024 5.21698L8 4.86914L0.497594 5.21695C0.176031 6.08361 0 7.02101 0 7.99957C0 8.97813 0.176031 9.91554 0.497594 10.7822L8 11.13L15.5024 10.7822C15.824 9.91554 16 8.97813 16 7.99957Z" fill="#D80027"/>
<path d="M8.00045 16.0006C11.4402 16.0006 14.3725 13.8296 15.5029 10.7832H0.498047C1.62839 13.8296 4.56073 16.0006 8.00045 16.0006Z" fill="#6DA544"/>
<path d="M0.498047 5.21741H15.5029C14.3725 2.171 11.4402 0 8.00045 0C4.56073 0 1.62839 2.171 0.498047 5.21741Z" fill="#338AF3"/>
<path d="M8.17365 10.2603C6.92502 10.2603 5.91277 9.24805 5.91277 7.99942C5.91277 6.7508 6.92502 5.73855 8.17365 5.73855C8.56296 5.73855 8.92931 5.83698 9.24912 6.0103C8.74737 5.51964 8.06124 5.2168 7.30408 5.2168C5.76727 5.2168 4.52148 6.46261 4.52148 7.99939C4.52148 9.53617 5.7673 10.782 7.30408 10.782C8.06127 10.782 8.7474 10.4791 9.24912 9.98849C8.92931 10.1619 8.56296 10.2603 8.17365 10.2603Z" fill="#F0F0F0"/>
<path d="M9.91288 6.43359L10.2123 7.27581L11.0197 6.892L10.6359 7.69931L11.4781 7.99881L10.6359 8.29831L11.0197 9.10563L10.2123 8.72181L9.91288 9.56403L9.61344 8.72181L8.80609 9.10563L9.18991 8.29831L8.34766 7.99881L9.18991 7.69931L8.80609 6.892L9.61344 7.27581L9.91288 6.43359Z" fill="#F0F0F0"/>
</svg>
