<svg width="24" height="18" viewBox="0 0 24 18" fill="none" xmlns="http://www.w3.org/2000/svg">
<path d="M3 0.5C1.61929 0.5 0.5 1.61929 0.5 3V15C0.5 16.3807 1.61929 17.5 3 17.5H20.7143C22.095 17.5 23.2143 16.3807 23.2143 15V3C23.2143 1.61929 22.095 0.5 20.7143 0.5H3Z" fill="white" stroke="white"/>
<path d="M1 3C1 1.89543 1.89543 1 3 1H20.7143C21.8189 1 22.7143 1.89543 22.7143 3V6.33333H1V3Z" fill="#338AF3"/>
<rect x="1" y="6.3335" width="21.7143" height="5.33333" fill="#D80027"/>
<path d="M1 11.6665H22.7143V14.9998C22.7143 16.1044 21.8189 16.9998 20.7143 16.9998H3C1.89543 16.9998 1 16.1044 1 14.9998V11.6665Z" fill="#6DA544"/>
<path d="M12 10.8573C10.9743 10.8573 10.1428 10.0258 10.1428 9.0001C10.1428 7.97443 10.9743 7.14294 12 7.14294C12.3198 7.14294 12.6207 7.2238 12.8834 7.36616C12.4713 6.96312 11.9077 6.71436 11.2857 6.71436C10.0233 6.71436 9 7.73771 9 9.00007C9 10.2624 10.0234 11.2858 11.2857 11.2858C11.9077 11.2858 12.4713 11.037 12.8834 10.634C12.6207 10.7764 12.3198 10.8573 12 10.8573Z" fill="#F0F0F0"/>
<path d="M13.4283 7.71436L13.6743 8.40618L14.3374 8.09091L14.0222 8.75406L14.714 9.00008L14.0222 9.2461L14.3374 9.90925L13.6743 9.59397L13.4283 10.2858L13.1823 9.59397L12.5192 9.90925L12.8344 9.2461L12.1426 9.00008L12.8344 8.75406L12.5192 8.09091L13.1823 8.40618L13.4283 7.71436Z" fill="#F0F0F0"/>
</svg>
