<svg width="16" height="16" viewBox="0 0 16 16" fill="none" xmlns="http://www.w3.org/2000/svg">
<path fill-rule="evenodd" clip-rule="evenodd" d="M11.3333 3.33331V5.39466C11.7207 5.53266 12 5.89934 12 6.33334C12 6.88469 11.5513 7.33334 11 7.33334C10.4487 7.33334 10 6.88469 10 6.33334C10 5.89934 10.2793 5.53266 10.6667 5.39469V3.33334C10.6667 1.86269 9.47066 0.666687 8 0.666687C6.52934 0.666687 5.33334 1.86269 5.33334 3.33334V5.39469C5.72066 5.53269 6 5.89934 6 6.33334C6 6.88469 5.55134 7.33334 5 7.33334C4.44866 7.33334 4 6.88469 4 6.33334C4 5.89934 4.27934 5.53266 4.66666 5.39469V3.33334C4.66666 1.49534 6.162 0 8 0C9.838 0 11.3333 1.49534 11.3333 3.33331ZM4.66666 6.33331C4.66666 6.51731 4.816 6.66666 5 6.66666C5.184 6.66666 5.33334 6.51734 5.33334 6.33334C5.33334 6.14934 5.184 6 5 6C4.816 6 4.66666 6.14931 4.66666 6.33331ZM10.6667 6.33331C10.6667 6.51731 10.8167 6.66666 11 6.66666C11.1833 6.66666 11.3333 6.51734 11.3333 6.33334C11.3333 6.14934 11.1833 6 11 6C10.8167 6 10.6667 6.14931 10.6667 6.33331ZM12 3.33203H15.6667C15.8507 3.33203 16 3.48134 16 3.66534V13.6653C16 14.952 14.9533 15.9987 13.6667 15.9987H2.33334C1.04666 15.9987 0 14.952 0 13.6653V3.66534C0 3.48134 0.149344 3.33203 0.333344 3.33203H4V5.00338C3.58869 5.31337 3.33334 5.80269 3.33334 6.33203C3.33334 7.25069 4.08134 7.99869 5 7.99869C5.91866 7.99869 6.66666 7.25069 6.66666 6.33203C6.66666 5.80203 6.41134 5.31272 6 5.00338V3.33203H10V5.00338C9.58869 5.31269 9.33334 5.80203 9.33334 6.33203C9.33334 7.25069 10.0807 7.99869 11 7.99869C11.9193 7.99869 12.6667 7.25069 12.6667 6.33203C12.6667 5.80203 12.4113 5.31272 12 5.00338V3.33203Z" fill="#F05835"/>
</svg>
