<svg width="17" height="16" viewBox="0 0 17 16" fill="none" xmlns="http://www.w3.org/2000/svg">
<path d="M0.650406 16H16.2602C16.6193 16 16.9106 15.7088 16.9106 15.3496V0.650406C16.9106 0.291187 16.6193 0 16.2602 0H0.650406C0.291252 0 0 0.291187 0 0.650406V15.3496C0 15.7088 0.291252 16 0.650406 16ZM6.50406 1.30081H10.4065V4.80605L8.71707 3.96995C8.53366 3.87909 8.31798 3.88006 8.13535 3.97236L6.50406 4.79642V1.30081ZM1.30081 1.30081H5.20325V5.85366C5.20325 6.07954 5.32046 6.2893 5.51291 6.40767C5.70524 6.52598 5.94537 6.53607 6.14693 6.43421L8.43161 5.28007L10.7685 6.43662C10.9666 6.5347 11.2057 6.52696 11.4 6.40624C11.5911 6.28754 11.7073 6.07857 11.7073 5.85366V1.30081H15.6098V14.6992H1.30081V1.30081Z" fill="#8E8E8E"/>
<path d="M13.6583 11.4473H9.75588C9.39672 11.4473 9.10547 11.7385 9.10547 12.0977C9.10547 12.4569 9.39672 12.7481 9.75588 12.7481H13.6583C14.0175 12.7481 14.3087 12.4569 14.3087 12.0977C14.3087 11.7385 14.0175 11.4473 13.6583 11.4473Z" fill="#8E8E8E"/>
</svg>
