<svg width="14" height="16" viewBox="0 0 14 16" fill="none" xmlns="http://www.w3.org/2000/svg">
<path fill-rule="evenodd" clip-rule="evenodd" d="M13.2188 11C13.5639 11 13.8438 10.7202 13.8438 10.375V2.5C13.8438 1.1215 12.7222 0 11.3438 0H2.65625C1.27775 0 0.15625 1.1215 0.15625 2.5V13.5C0.15625 14.8785 1.27775 16 2.65625 16H11.3438C12.7222 16 13.8438 14.8785 13.8438 13.5C13.8438 13.1548 13.5639 12.875 13.2188 12.875C12.8736 12.875 12.5938 13.1548 12.5938 13.5C12.5938 14.1892 12.033 14.75 11.3438 14.75H2.65625C1.967 14.75 1.40625 14.1892 1.40625 13.5V2.5C1.40625 1.81075 1.967 1.25 2.65625 1.25H11.3438C12.033 1.25 12.5938 1.81075 12.5938 2.5V10.375C12.5938 10.7202 12.8736 11 13.2188 11ZM10.7188 12.25H8.21875C7.87356 12.25 7.59375 12.5298 7.59375 12.875C7.59375 13.2202 7.87356 13.5 8.21875 13.5H10.7188C11.0639 13.5 11.3438 13.2202 11.3438 12.875C11.3438 12.5298 11.0639 12.25 10.7188 12.25ZM2.65625 8.125C2.65625 7.77981 2.93606 7.5 3.28125 7.5C3.62644 7.5 3.94 7.77981 3.94 8.125C3.94 8.47019 3.62644 8.75 3.28125 8.75C2.93606 8.75 2.65625 8.47019 2.65625 8.125ZM5.78125 8.75C6.12643 8.75 6.40625 8.47018 6.40625 8.125C6.40625 7.77982 6.12643 7.5 5.78125 7.5C5.43607 7.5 5.15625 7.77982 5.15625 8.125C5.15625 8.47018 5.43607 8.75 5.78125 8.75ZM8.875 8.125C8.875 8.47018 8.59518 8.75 8.25 8.75C7.90482 8.75 7.625 8.47018 7.625 8.125C7.625 7.77982 7.90482 7.5 8.25 7.5C8.59518 7.5 8.875 7.77982 8.875 8.125ZM3.28125 9.875C2.93606 9.875 2.65625 10.1548 2.65625 10.5C2.65625 10.8452 2.93606 11.125 3.28125 11.125C3.62644 11.125 3.9375 10.8452 3.9375 10.5C3.9375 10.1548 3.62644 9.875 3.28125 9.875ZM6.40625 10.5C6.40625 10.8452 6.12643 11.125 5.78125 11.125C5.43607 11.125 5.15625 10.8452 5.15625 10.5C5.15625 10.1548 5.43607 9.875 5.78125 9.875C6.12643 9.875 6.40625 10.1548 6.40625 10.5ZM8.25 11.125C8.59518 11.125 8.875 10.8452 8.875 10.5C8.875 10.1548 8.59518 9.875 8.25 9.875C7.90482 9.875 7.625 10.1548 7.625 10.5C7.625 10.8452 7.90482 11.125 8.25 11.125ZM11.3438 8.125C11.3438 8.47018 11.0639 8.75 10.7188 8.75C10.3736 8.75 10.0938 8.47018 10.0938 8.125C10.0938 7.77982 10.3736 7.5 10.7188 7.5C11.0639 7.5 11.3438 7.77982 11.3438 8.125ZM3.28125 13.5C3.62643 13.5 3.90625 13.2202 3.90625 12.875C3.90625 12.5298 3.62643 12.25 3.28125 12.25C2.93607 12.25 2.65625 12.5298 2.65625 12.875C2.65625 13.2202 2.93607 13.5 3.28125 13.5ZM11.3438 10.5C11.3438 10.8452 11.0639 11.125 10.7188 11.125C10.3736 11.125 10.0938 10.8452 10.0938 10.5C10.0938 10.1548 10.3736 9.875 10.7188 9.875C11.0639 9.875 11.3438 10.1548 11.3438 10.5ZM5.75 13.5C6.09518 13.5 6.375 13.2202 6.375 12.875C6.375 12.5298 6.09518 12.25 5.75 12.25C5.40482 12.25 5.125 12.5298 5.125 12.875C5.125 13.2202 5.40482 13.5 5.75 13.5ZM3.28125 2.5H10.7188C11.0639 2.5 11.3438 2.77981 11.3438 3.125V5.625C11.3438 5.97019 11.0639 6.25 10.7188 6.25H3.28125C2.93606 6.25 2.65625 5.97019 2.65625 5.625V3.125C2.65625 2.77981 2.93606 2.5 3.28125 2.5ZM3.90625 5H10.0938V3.75H3.90625V5Z" fill="#8E8E8E"/>
</svg>
