<svg width="16" height="15" viewBox="0 0 16 15" fill="none" xmlns="http://www.w3.org/2000/svg">
<path fill-rule="evenodd" clip-rule="evenodd" d="M2.66634 6.5C1.65382 6.5 0.833008 7.3208 0.833008 8.33333V9.66667C0.833008 10.6792 1.65382 11.5 2.66634 11.5H3.33301C3.60915 11.5 3.83301 11.2761 3.83301 11V7C3.83301 6.72387 3.60915 6.5 3.33301 6.5H2.66634Z" fill="#F05835"/>
<path fill-rule="evenodd" clip-rule="evenodd" d="M13.3327 6.5C14.3452 6.5 15.166 7.3208 15.166 8.33333V9.66667C15.166 10.6792 14.3452 11.5 13.3327 11.5H12.666C12.3899 11.5 12.166 11.2761 12.166 11V7C12.166 6.72387 12.3899 6.5 12.666 6.5H13.3327Z" fill="#F05835"/>
<path fill-rule="evenodd" clip-rule="evenodd" d="M2.83301 5.66667C2.83301 2.81319 5.1462 0.5 7.99968 0.5C10.8531 0.5 13.1663 2.81319 13.1663 5.66667V8.33333C13.1663 8.60947 12.9425 8.83333 12.6663 8.83333C12.3902 8.83333 12.1663 8.60947 12.1663 8.33333V5.66667C12.1663 3.36548 10.3009 1.5 7.99968 1.5C5.69849 1.5 3.83301 3.36548 3.83301 5.66667V8.33333C3.83301 8.60947 3.60915 8.83333 3.33301 8.83333C3.05687 8.83333 2.83301 8.60947 2.83301 8.33333V5.66667Z" fill="#F05835"/>
<path fill-rule="evenodd" clip-rule="evenodd" d="M12.6663 9.16602C12.9425 9.16602 13.1663 9.38988 13.1663 9.66601V11.666C13.1663 12.6785 12.3455 13.4993 11.333 13.4993H9.33301C9.05687 13.4993 8.83301 13.2755 8.83301 12.9993C8.83301 12.7232 9.05687 12.4993 9.33301 12.4993H11.333C11.7933 12.4993 12.1663 12.1263 12.1663 11.666V9.66601C12.1663 9.38988 12.3902 9.16602 12.6663 9.16602Z" fill="#F05835"/>
<path fill-rule="evenodd" clip-rule="evenodd" d="M7.99967 11.834C7.35534 11.834 6.83301 12.3563 6.83301 13.0006C6.83301 13.645 7.35534 14.1673 7.99967 14.1673H8.66634C9.31067 14.1673 9.83301 13.645 9.83301 13.0006C9.83301 12.3563 9.31067 11.834 8.66634 11.834H7.99967Z" fill="#F05835"/>
</svg>
