<svg width="8" height="11" viewBox="0 0 8 11" fill="none" xmlns="http://www.w3.org/2000/svg">
<path d="M7.1364 5.11008L2.21248 0.659764C2.0986 0.556751 1.94657 0.5 1.78447 0.5C1.62237 0.5 1.47035 0.556751 1.35646 0.659764L0.993851 0.987424C0.757897 1.20093 0.757897 1.54794 0.993851 1.76112L5.12858 5.49823L0.989263 9.23948C0.875379 9.34249 0.8125 9.47982 0.8125 9.62625C0.8125 9.77284 0.875379 9.91016 0.989263 10.0133L1.35188 10.3408C1.46585 10.4439 1.61778 10.5006 1.77989 10.5006C1.94199 10.5006 2.09401 10.4439 2.2079 10.3408L7.1364 5.88646C7.25055 5.78312 7.31325 5.64515 7.31289 5.49847C7.31325 5.35123 7.25055 5.21333 7.1364 5.11008Z" fill="#373736"/>
</svg>
