<svg width="9" height="6" viewBox="0 0 9 6" fill="none" xmlns="http://www.w3.org/2000/svg">
<path d="M4.85118 5.83709L8.85622 1.29221C8.94893 1.1871 9 1.04677 9 0.897152C9 0.74753 8.94893 0.607207 8.85622 0.50209L8.56135 0.167391C8.3692 -0.0503999 8.05691 -0.0503999 7.86506 0.167391L4.50187 3.98384L1.13494 0.163156C1.04224 0.0580385 0.918651 -3.53247e-07 0.786871 -3.59007e-07C0.654945 -3.64774e-07 0.531361 0.0580384 0.438581 0.163156L0.143779 0.497855C0.0510721 0.603055 -3.24905e-08 0.743295 -3.90307e-08 0.892917C-4.55709e-08 1.04254 0.0510721 1.18286 0.143779 1.28798L4.15248 5.83709C4.24548 5.94246 4.36965 6.00033 4.50165 6C4.63416 6.00033 4.75825 5.94246 4.85118 5.83709Z" fill="#373736"/>
</svg>
