<svg width="16" height="13" viewBox="0 0 16 13" fill="none" xmlns="http://www.w3.org/2000/svg">
<path d="M15.8327 4.16738L11.8327 0.167305C11.6095 -0.055824 11.2476 -0.055757 11.0245 0.167439C10.9174 0.274583 10.8572 0.419831 10.8572 0.57134V2.28565H6.85713C6.54152 2.28565 6.28568 2.54149 6.28568 2.8571C6.28568 3.17271 6.54152 3.42855 6.85713 3.42855H11.4287C11.7443 3.42855 12.0001 3.17271 12.0001 2.8571V1.95076L14.6207 4.57138L12.0001 7.192V6.2857C12.0001 5.97009 11.7443 5.71425 11.4287 5.71425H5.14281V3.99993C5.14275 3.68433 4.88684 3.42855 4.57126 3.42862C4.41979 3.42865 4.27451 3.48882 4.16736 3.59593L0.167321 7.59601C-0.0557738 7.81917 -0.0557738 8.18088 0.167321 8.40401L4.1674 12.4041C4.27454 12.5113 4.41986 12.5715 4.5714 12.5715C4.6465 12.5718 4.72093 12.557 4.79024 12.5281C5.00373 12.4396 5.14288 12.2312 5.14281 12.0001V10.2858H9.14289C9.4585 10.2858 9.71434 10.0299 9.71434 9.71432C9.71434 9.39872 9.4585 9.14287 9.14289 9.14287H4.5714C4.25579 9.14287 3.99995 9.39872 3.99995 9.71432V10.6206L1.37933 8.00001L3.99995 5.37939V6.2857C3.99995 6.6013 4.25579 6.85714 4.5714 6.85714H10.8572V8.57146C10.8573 8.88707 11.1132 9.14284 11.4288 9.14277C11.5802 9.14274 11.7255 9.08257 11.8327 8.97546L15.8327 4.97538C16.0558 4.75222 16.0558 4.39051 15.8327 4.16738Z" fill="#8E8E8E"/>
</svg>
