<svg width="101" height="30" viewBox="0 0 101 30" fill="none" xmlns="http://www.w3.org/2000/svg">
<path fill-rule="evenodd" clip-rule="evenodd" d="M4.95151 0C2.21687 0 0 2.21686 0 4.9515V24.8406C0 27.5753 2.21686 29.7921 4.9515 29.7921H95.3486C98.0833 29.7921 100.3 27.5753 100.3 24.8406V4.9515C100.3 2.21686 98.0833 0 95.3486 0H4.95151Z" fill="#282828"/>
<path d="M14.6681 11.1787C14.5069 11.3399 14.3994 11.6086 14.3994 11.931V23.8064C14.3994 24.1288 14.5069 24.3975 14.6681 24.5587L14.7218 24.6125L21.3316 17.9493V17.8956V17.8418L14.6681 11.1787Z" fill="#5BC9F4"/>
<path d="M23.5353 20.1534L21.332 17.9503V17.8965V17.8428L23.5353 15.5859L23.589 15.6397L26.2222 17.1443C26.9745 17.5741 26.9745 18.2727 26.2222 18.7026L23.5353 20.1534Z" fill="url(#paint0_linear)"/>
<path d="M23.5884 20.1534L21.3314 17.8965L14.668 24.5596C14.9367 24.8283 15.3128 24.8283 15.7965 24.6134L23.5884 20.1534Z" fill="url(#paint1_linear)"/>
<path d="M23.5874 15.5859L15.7417 11.1259C15.3118 10.8572 14.8819 10.9109 14.667 11.1796L21.3842 17.8965L23.5874 15.5859Z" fill="url(#paint2_linear)"/>
<path fill-rule="evenodd" clip-rule="evenodd" d="M81.9661 23.3773L85.4659 15.3086H84.326L82.7072 19.3315H82.6843L81.02 15.3086H79.8799L82.1828 20.5544L80.8833 23.3773H81.9661Z" fill="white"/>
<path fill-rule="evenodd" clip-rule="evenodd" d="M77.0872 15.3086C75.6865 15.3086 75.0144 16.1446 74.821 16.6528L75.7774 17.0593C75.971 16.5397 76.5291 16.2574 77.11 16.2574C77.8959 16.2574 78.5677 16.7656 78.5677 17.6016V17.7598C78.3512 17.6355 77.8047 17.4208 77.053 17.4208C75.7432 17.4208 74.6045 18.0986 74.6045 19.3523C74.6045 20.5047 75.5496 21.205 76.6886 21.205C77.6452 21.205 78.2146 20.7192 78.522 20.2561H78.5677V21.0241H79.5698V17.6806C79.5698 16.1219 78.4537 15.3086 77.0872 15.3086ZM76.8596 20.2563C76.3131 20.2563 75.698 19.9626 75.698 19.3752C75.698 18.8668 76.1308 18.2796 77.2356 18.2796C78.1237 18.2796 78.568 18.6408 78.568 18.6408C78.568 19.5446 77.6909 20.2563 76.8596 20.2563Z" fill="white"/>
<path fill-rule="evenodd" clip-rule="evenodd" d="M73.0518 13.1367H73.9828V21.2054H73.0518V13.1367Z" fill="white"/>
<path fill-rule="evenodd" clip-rule="evenodd" d="M69.5964 13.1367H66.8457V21.2054H67.8828V17.9374H69.5964C70.9376 17.9374 72.1214 16.9458 72.1214 15.5372C72.1214 14.1286 70.9376 13.1367 69.5964 13.1367ZM69.6187 16.9458H67.8828V14.1285H69.6187C70.543 14.1285 71.0616 14.8947 71.0616 15.5372C71.0616 16.1793 70.543 16.9458 69.6187 16.9458Z" fill="white"/>
<path fill-rule="evenodd" clip-rule="evenodd" d="M59.5482 18.4577C59.5169 17.4094 60.3729 16.8752 60.989 16.8752C61.4693 16.8752 61.8763 17.1116 62.012 17.4505L59.5482 18.4577ZM61.0829 21.253C62.3462 21.253 63.0769 20.4924 63.3797 20.0508L62.4402 19.4341C62.1269 19.8863 61.6988 20.1844 61.0829 20.1844C60.4669 20.1844 60.0283 19.9069 59.7466 19.3622L63.4319 17.8619L63.3066 17.5535C63.0769 16.9474 62.3775 15.8271 60.9472 15.8271C59.5273 15.8271 58.3477 16.9269 58.3477 18.5402C58.3477 20.061 59.5169 21.253 61.0829 21.253Z" fill="white"/>
<path fill-rule="evenodd" clip-rule="evenodd" d="M56.5518 21.0885H57.7628V13.1143H56.5518V21.0885Z" fill="white"/>
<path fill-rule="evenodd" clip-rule="evenodd" d="M55.7162 20.8624C55.7162 22.8663 54.5156 23.6883 53.0958 23.6883C51.7595 23.6883 50.9554 22.8047 50.6526 22.0852L51.7073 21.6538C51.8952 22.0955 52.3544 22.6197 53.0958 22.6197C54.004 22.6197 54.5679 22.0647 54.5679 21.0269V20.6363H54.5261C54.2546 20.9652 53.7325 21.253 53.0749 21.253C51.6968 21.253 50.4336 20.0713 50.4336 18.5505C50.4336 17.0194 51.6968 15.8271 53.0749 15.8271C53.7325 15.8271 54.2546 16.1149 54.5261 16.4335H54.5679V15.9916H55.7162V20.8624ZM51.6443 18.5503C51.6443 19.4956 52.3437 20.1842 53.179 20.1842C54.0037 20.1842 54.6511 19.4956 54.6511 18.5503C54.6511 17.5945 54.0037 16.8959 53.179 16.8959C52.3437 16.8959 51.6443 17.5945 51.6443 18.5503Z" fill="white"/>
<path fill-rule="evenodd" clip-rule="evenodd" d="M49.9327 18.5402C49.9327 20.1021 48.6903 21.253 47.166 21.253C45.6418 21.253 44.3994 20.1021 44.3994 18.5402C44.3994 16.968 45.6418 15.8271 47.166 15.8271C48.6903 15.8271 49.9327 16.968 49.9327 18.5402ZM45.6104 18.5401C45.6104 19.5059 46.3306 20.1842 47.166 20.1842C48.0011 20.1842 48.7216 19.5059 48.7216 18.5401C48.7216 17.5637 48.0011 16.8959 47.166 16.8959C46.3306 16.8959 45.6104 17.5637 45.6104 18.5401Z" fill="white"/>
<path fill-rule="evenodd" clip-rule="evenodd" d="M43.8987 18.5402C43.8987 20.1021 42.6564 21.253 41.1321 21.253C39.6078 21.253 38.3652 20.1021 38.3652 18.5402C38.3652 16.968 39.6078 15.8271 41.1321 15.8271C42.6564 15.8271 43.8987 16.968 43.8987 18.5402ZM39.5765 18.5401C39.5765 19.5059 40.2967 20.1842 41.1321 20.1842C41.9672 20.1842 42.6877 19.5059 42.6877 18.5401C42.6877 17.5637 41.9672 16.8959 41.1321 16.8959C40.2967 16.8959 39.5765 17.5637 39.5765 18.5401Z" fill="white"/>
<path fill-rule="evenodd" clip-rule="evenodd" d="M33.9486 21.2526C35.2225 21.2526 36.1829 20.8415 36.9345 20.0709C37.7072 19.3104 37.9474 18.2417 37.9474 17.3784C37.9474 17.1115 37.9265 16.8648 37.8847 16.6592H33.9486V17.8101H36.7465C36.663 18.4576 36.444 18.9301 36.1098 19.259C35.7026 19.6598 35.0656 20.1017 33.9486 20.1017C32.2259 20.1017 30.8791 18.7351 30.8791 17.0395C30.8791 15.3439 32.2259 13.9773 33.9486 13.9773C34.8779 13.9773 35.5564 14.3367 36.0576 14.7992L36.8823 13.9875C36.1829 13.3298 35.2536 12.8262 33.9486 12.8262C31.5892 12.8262 29.6055 14.717 29.6055 17.0395C29.6055 19.3617 31.5892 21.2526 33.9486 21.2526Z" fill="white"/>
<path fill-rule="evenodd" clip-rule="evenodd" d="M32.7011 8.58223C32.6639 8.63072 32.6122 8.68446 32.5459 8.74346C32.4797 8.80246 32.3944 8.85741 32.2902 8.90833C32.1859 8.95924 32.0606 9.00207 31.9144 9.03682C31.7681 9.07157 31.5964 9.08895 31.3992 9.08895C31.1777 9.08895 30.9745 9.05097 30.7894 8.975C30.6043 8.89903 30.4455 8.78912 30.313 8.64527C30.1805 8.50141 30.0774 8.32443 30.0039 8.11431C29.9303 7.90418 29.8936 7.66416 29.8936 7.39423V7.16148C29.8936 6.89317 29.9267 6.65355 29.993 6.44262C30.0592 6.23169 30.1546 6.05349 30.279 5.90802C30.4035 5.76255 30.5554 5.65183 30.7349 5.57587C30.9143 5.4999 31.1179 5.46191 31.3458 5.46191C31.5608 5.46191 31.7483 5.4898 31.9083 5.54556C32.0683 5.60132 32.2033 5.67931 32.3132 5.77952C32.4231 5.87973 32.5096 5.99894 32.5726 6.13713C32.6357 6.27533 32.6777 6.42686 32.6987 6.59173H32.0974C32.0829 6.4996 32.0586 6.41474 32.0247 6.33715C31.9907 6.25957 31.9443 6.19249 31.8853 6.13592C31.8263 6.07935 31.7535 6.0349 31.6671 6.00258C31.5806 5.97025 31.4776 5.95409 31.3579 5.95409C31.2141 5.95409 31.0892 5.98075 30.9834 6.03409C30.8775 6.08743 30.7894 6.16542 30.7191 6.26806C30.6488 6.37069 30.5963 6.49677 30.5615 6.64628C30.5268 6.79579 30.5094 6.9659 30.5094 7.15663V7.39423C30.5094 7.58819 30.5304 7.75993 30.5724 7.90944C30.6144 8.05895 30.6746 8.18462 30.753 8.28644C30.8314 8.38827 30.9268 8.46586 31.0391 8.5192C31.1515 8.57253 31.2787 8.5992 31.421 8.5992C31.526 8.5992 31.6162 8.59233 31.6913 8.5786C31.7665 8.56486 31.8299 8.54748 31.8816 8.52647C31.9334 8.50546 31.9758 8.48242 32.0089 8.45737C32.0421 8.43232 32.0691 8.40848 32.0901 8.38585V7.69487H31.3628V7.22937H32.7011V8.58223ZM35.4386 7.46456H33.9888V8.55073H35.6835V9.04048H33.3754V5.51042H35.6665V6.00502H33.9888V6.97966H35.4386V7.46456ZM38.7333 6.00502H37.6326V9.04048H37.0241V6.00502H35.9331V5.51042H38.7333V6.00502ZM41.0805 9.04048H40.4695V5.51042H41.0805V9.04048ZM44.3852 6.00502H43.2845V9.04048H42.6759V6.00502H41.5849V5.51042H44.3852V6.00502ZM48.9018 7.36756C48.9018 7.63587 48.8666 7.8763 48.7963 8.08885C48.726 8.3014 48.627 8.48161 48.4993 8.62951C48.3716 8.7774 48.2181 8.89095 48.0387 8.97015C47.8593 9.04935 47.6605 9.08895 47.4422 9.08895C47.2257 9.08895 47.0277 9.04935 46.8482 8.97015C46.6688 8.89095 46.5141 8.7774 46.384 8.62951C46.2538 8.48161 46.1528 8.3014 46.0809 8.08885C46.009 7.8763 45.973 7.63587 45.973 7.36756V7.18815C45.973 6.91984 46.009 6.67901 46.0809 6.46565C46.1528 6.2523 46.253 6.07127 46.3815 5.92257C46.51 5.77386 46.664 5.65991 46.8434 5.58071C47.0228 5.50151 47.2208 5.46191 47.4374 5.46191C47.6556 5.46191 47.8548 5.50151 48.035 5.58071C48.2153 5.65991 48.3696 5.77386 48.4981 5.92257C48.6266 6.07127 48.726 6.2523 48.7963 6.46565C48.8666 6.67901 48.9018 6.91984 48.9018 7.18815V7.36756ZM48.2882 7.18325C48.2882 6.98606 48.2692 6.8119 48.2312 6.66077C48.1932 6.50964 48.1379 6.38317 48.0651 6.28134C47.9924 6.17951 47.9031 6.10233 47.7972 6.0498C47.6914 5.99727 47.5713 5.971 47.4372 5.971C47.3063 5.971 47.1883 5.99727 47.0832 6.0498C46.9781 6.10233 46.8888 6.17951 46.8153 6.28134C46.7418 6.38317 46.6852 6.50964 46.6456 6.66077C46.606 6.8119 46.5862 6.98606 46.5862 7.18325V7.36751C46.5862 7.5647 46.606 7.73926 46.6456 7.8912C46.6852 8.04313 46.7422 8.17042 46.8165 8.27306C46.8909 8.37569 46.981 8.45328 47.0868 8.50581C47.1927 8.55834 47.3111 8.5846 47.442 8.5846C47.7136 8.5846 47.9225 8.48116 48.0688 8.27427C48.215 8.06738 48.2882 7.76513 48.2882 7.36751V7.18325ZM52.3128 9.04048H51.6994L50.1259 6.53598V9.04048H49.5125V5.51042H50.1259L51.7043 8.02462V5.51042H52.3128V9.04048Z" fill="white"/>
<defs>
<linearGradient id="paint0_linear" x1="25.7462" y1="17.8691" x2="12.7553" y2="17.8691" gradientUnits="userSpaceOnUse">
<stop stop-color="#FEE000"/>
<stop offset="0.1941" stop-color="#FCCF0B"/>
<stop offset="0.5469" stop-color="#FAB318"/>
<stop offset="0.8279" stop-color="#F9A21B"/>
<stop offset="1" stop-color="#F99B1C"/>
</linearGradient>
<linearGradient id="paint1_linear" x1="22.3743" y1="19.101" x2="10.1563" y2="31.3196" gradientUnits="userSpaceOnUse">
<stop stop-color="#EF4547"/>
<stop offset="1" stop-color="#C6186D"/>
</linearGradient>
<linearGradient id="paint2_linear" x1="10.1003" y1="4.36428" x2="20.0759" y2="14.3404" gradientUnits="userSpaceOnUse">
<stop stop-color="#279E6F"/>
<stop offset="0.3168" stop-color="#4DAB6D"/>
<stop offset="0.7398" stop-color="#6ABA6A"/>
<stop offset="1" stop-color="#74C169"/>
</linearGradient>
</defs>
</svg>
