<svg width="16" height="16" viewBox="0 0 16 16" fill="none" xmlns="http://www.w3.org/2000/svg">
<path d="M8 0C3.5888 0 0 3.58885 0 8.00005C0 12.4112 3.5888 16 8 16C12.4112 16 16 12.4112 16 8.00005C16 3.58885 12.4112 0 8 0ZM8 14.5455C4.39079 14.5455 1.45455 11.6092 1.45455 8.00005C1.45455 4.39088 4.39079 1.45455 8 1.45455C11.6092 1.45455 14.5455 4.39088 14.5455 8.00005C14.5455 11.6092 11.6092 14.5455 8 14.5455Z" fill="#373736" fill-opacity="0.5"/>
<path d="M8.148 9.916C8.448 9.916 8.556 9.808 8.616 9.472C8.844 8.404 10.788 8.2 10.788 6.112C10.788 5.512 10.56 5.008 10.116 4.6C9.66 4.204 9.048 4 8.268 4C7.416 4 6.72 4.3 6.168 4.888C6.06 5.02 6 5.14 6 5.26C6 5.356 6.036 5.44 6.108 5.512L6.384 5.788C6.492 5.896 6.6 5.944 6.72 5.944C6.828 5.944 6.924 5.908 7.008 5.824C7.308 5.524 7.704 5.38 8.184 5.38C8.82 5.38 9.312 5.836 9.312 6.412C9.312 7.864 7.308 7.84 7.308 9.496C7.308 9.748 7.476 9.916 7.68 9.916H8.148ZM7.092 11.632C7.092 12.148 7.476 12.592 8.04 12.592C8.556 12.592 8.928 12.148 8.928 11.632C8.928 11.188 8.556 10.744 8.04 10.744C7.476 10.744 7.092 11.188 7.092 11.632Z" fill="#9B9B9B"/>
</svg>
