<svg width="140" height="32" viewBox="0 0 140 32" fill="none" xmlns="http://www.w3.org/2000/svg">
<path d="M8.76357 11.1736L11.3849 12.5871L9.89436 15.0542L7.1959 13.4352L7.27299 16.3906H4.34324L4.42034 13.4352L1.72187 15.0542L0.256996 12.5871L2.87836 11.1736L0.256996 9.73442L1.72187 7.26726L4.42034 8.91203L4.34324 5.93088H7.27299L7.1959 8.91203L9.89436 7.26726L11.3849 9.73442L8.76357 11.1736ZM19.7004 6.65047C22.2875 6.65047 24.3263 7.41289 25.8169 8.93773C27.3075 10.4626 28.0527 12.6556 28.0527 15.5168C28.0527 17.5728 27.6501 19.3461 26.8449 20.8367C26.0567 22.3101 24.9345 23.4323 23.4782 24.2033C22.039 24.9743 20.3686 25.3598 18.4668 25.3598C17.4559 25.3598 16.4879 25.2399 15.5627 25C14.6375 24.7773 13.8494 24.4603 13.1984 24.0491L15.0487 20.3998C15.9225 21.0166 17.0276 21.325 18.364 21.325C19.649 21.325 20.6855 20.9737 21.4736 20.2713C22.2789 19.5517 22.7501 18.5151 22.8871 17.1616C21.8591 18.0354 20.5142 18.4723 18.8523 18.4723C17.7215 18.4723 16.6849 18.241 15.7426 17.7784C14.8003 17.2987 14.0465 16.6305 13.4811 15.7738C12.9328 14.9 12.6587 13.9063 12.6587 12.7927C12.6587 11.5762 12.9671 10.5054 13.5839 9.58022C14.2178 8.6379 15.0659 7.91832 16.1281 7.42146C17.2075 6.90746 18.3983 6.65047 19.7004 6.65047ZM20.0602 14.8229C20.7969 14.8229 21.3965 14.6174 21.8591 14.2062C22.3217 13.7778 22.553 13.221 22.553 12.5357C22.553 11.8675 22.3217 11.3278 21.8591 10.9166C21.4137 10.4883 20.8055 10.2741 20.0345 10.2741C19.3149 10.2741 18.7238 10.4797 18.2612 10.8909C17.8157 11.3021 17.593 11.8589 17.593 12.5614C17.593 13.2467 17.8157 13.795 18.2612 14.2062C18.7238 14.6174 19.3234 14.8229 20.0602 14.8229ZM36.5443 13.5637C39.0628 13.5637 40.9218 14.0777 42.1211 15.1056C43.3375 16.1336 43.9458 17.5043 43.9458 19.2176C43.9458 20.3312 43.6545 21.3592 43.072 22.3015C42.5066 23.2267 41.6328 23.972 40.4506 24.5374C39.2856 25.0857 37.8378 25.3598 36.1074 25.3598C34.8395 25.3598 33.5802 25.2056 32.3295 24.8972C31.0959 24.5888 30.0337 24.1519 29.1428 23.5865L30.9674 19.7573C31.687 20.237 32.4752 20.6054 33.3318 20.8624C34.2056 21.1194 35.0794 21.2479 35.9532 21.2479C36.827 21.2479 37.5209 21.0851 38.0348 20.7596C38.566 20.4169 38.8315 19.9457 38.8315 19.3461C38.8315 18.7464 38.5745 18.2924 38.0605 17.984C37.5466 17.6756 36.6385 17.5214 35.3364 17.5214H30.4535L31.3529 7.01026H42.815V10.9423H35.5677L35.3364 13.5637H36.5443ZM52.0006 6.65047C54.5877 6.65047 56.6265 7.41289 58.1171 8.93773C59.6077 10.4626 60.353 12.6556 60.353 15.5168C60.353 17.5728 59.9503 19.3461 59.1451 20.8367C58.357 22.3101 57.2347 23.4323 55.7784 24.2033C54.3392 24.9743 52.6688 25.3598 50.767 25.3598C49.7561 25.3598 48.7881 25.2399 47.8629 25C46.9378 24.7773 46.1496 24.4603 45.4986 24.0491L47.349 20.3998C48.2227 21.0166 49.3278 21.325 50.6642 21.325C51.9492 21.325 52.9857 20.9737 53.7739 20.2713C54.5791 19.5517 55.0503 18.5151 55.1873 17.1616C54.1594 18.0354 52.8144 18.4723 51.1525 18.4723C50.0217 18.4723 48.9852 18.241 48.0428 17.7784C47.1005 17.2987 46.3467 16.6305 45.7813 15.7738C45.233 14.9 44.9589 13.9063 44.9589 12.7927C44.9589 11.5762 45.2673 10.5054 45.8841 9.58022C46.518 8.6379 47.3661 7.91832 48.4283 7.42146C49.5077 6.90746 50.6985 6.65047 52.0006 6.65047ZM52.3604 14.8229C53.0971 14.8229 53.6968 14.6174 54.1594 14.2062C54.6219 13.7778 54.8532 13.221 54.8532 12.5357C54.8532 11.8675 54.6219 11.3278 54.1594 10.9166C53.7139 10.4883 53.1057 10.2741 52.3347 10.2741C51.6151 10.2741 51.024 10.4797 50.5614 10.8909C50.1159 11.3021 49.8932 11.8589 49.8932 12.5614C49.8932 13.2467 50.1159 13.795 50.5614 14.2062C51.024 14.6174 51.6237 14.8229 52.3604 14.8229ZM68.8445 13.5637C71.363 13.5637 73.222 14.0777 74.4213 15.1056C75.6377 16.1336 76.246 17.5043 76.246 19.2176C76.246 20.3312 75.9547 21.3592 75.3722 22.3015C74.8068 23.2267 73.933 23.972 72.7508 24.5374C71.5858 25.0857 70.138 25.3598 68.4076 25.3598C67.1397 25.3598 65.8805 25.2056 64.6297 24.8972C63.3962 24.5888 62.3339 24.1519 61.443 23.5865L63.2677 19.7573C63.9872 20.237 64.7754 20.6054 65.632 20.8624C66.5058 21.1194 67.3796 21.2479 68.2534 21.2479C69.1272 21.2479 69.8211 21.0851 70.3351 20.7596C70.8662 20.4169 71.1317 19.9457 71.1317 19.3461C71.1317 18.7464 70.8747 18.2924 70.3608 17.984C69.8468 17.6756 68.9387 17.5214 67.6366 17.5214H62.7537L63.6532 7.01026H75.1152V10.9423H67.8679L67.6366 13.5637H68.8445Z" fill="#F05835"/>
<path d="M85.2941 6.05179H88.433C89.1601 6.05179 89.8049 6.18771 90.3676 6.45956C90.9303 6.73141 91.3665 7.11706 91.6763 7.61651C91.9861 8.11595 92.1409 8.70075 92.1409 9.37089C92.1409 10.041 91.9861 10.6258 91.6763 11.1253C91.3665 11.6247 90.9303 12.0104 90.3676 12.2822C89.8049 12.5541 89.1601 12.69 88.433 12.69H85.2941V6.05179ZM88.3572 11.1917C88.9262 11.1917 89.3814 11.0304 89.7227 10.708C90.0705 10.3856 90.2443 9.93988 90.2443 9.37089C90.2443 8.8019 90.0705 8.35619 89.7227 8.03376C89.3814 7.71134 88.9262 7.55012 88.3572 7.55012H87.1718V11.1917H88.3572Z" fill="#F05835"/>
<path d="M96.2014 5.91902C96.9158 5.91902 97.5511 6.06759 98.1075 6.36473C98.6701 6.65555 99.1064 7.06332 99.4162 7.58806C99.7323 8.11279 99.8903 8.70707 99.8903 9.37089C99.8903 10.0347 99.7354 10.629 99.4256 11.1537C99.1222 11.6785 98.7018 12.0894 98.1644 12.3865C97.627 12.6773 97.0201 12.8228 96.3436 12.8228C95.6545 12.8228 95.0381 12.6773 94.4944 12.3865C93.957 12.0894 93.5366 11.6721 93.2331 11.1348C92.936 10.5974 92.7874 9.98413 92.7874 9.29502V8.95363H97.9747C97.9052 8.51108 97.706 8.15388 97.3773 7.88203C97.0485 7.61018 96.6502 7.47426 96.1824 7.47426C95.8663 7.47426 95.5375 7.5438 95.1962 7.68289C94.8611 7.82197 94.5861 8.01164 94.3711 8.25188L93.2616 7.07597C93.584 6.73457 94.0108 6.4564 94.5418 6.24145C95.0729 6.0265 95.6261 5.91902 96.2014 5.91902ZM96.3436 11.4003C96.7862 11.4003 97.1497 11.2833 97.4342 11.0494C97.7187 10.8155 97.8957 10.4931 97.9652 10.0821H94.722C94.7979 10.4931 94.9749 10.8155 95.253 11.0494C95.5375 11.2833 95.9011 11.4003 96.3436 11.4003Z" fill="#F05835"/>
<path d="M103.222 12.8228C102.685 12.8228 102.163 12.7564 101.658 12.6236C101.152 12.4908 100.741 12.3138 100.425 12.0926L101.041 10.708C101.338 10.904 101.683 11.062 102.075 11.1822C102.467 11.3023 102.852 11.3623 103.232 11.3623C103.953 11.3623 104.313 11.1822 104.313 10.8218C104.313 10.6321 104.209 10.4931 104 10.4046C103.798 10.3097 103.469 10.2117 103.014 10.1106C102.514 10.0031 102.097 9.8893 101.762 9.76918C101.427 9.64274 101.139 9.44359 100.899 9.17174C100.659 8.89989 100.539 8.53321 100.539 8.0717C100.539 7.66708 100.649 7.30356 100.87 6.98113C101.092 6.65238 101.421 6.39318 101.857 6.20352C102.299 6.01385 102.84 5.91902 103.478 5.91902C103.915 5.91902 104.344 5.9696 104.768 6.07075C105.192 6.16558 105.565 6.30783 105.887 6.49749L105.309 7.89152C104.676 7.55012 104.063 7.37943 103.469 7.37943C103.096 7.37943 102.824 7.43633 102.653 7.55012C102.483 7.6576 102.397 7.79985 102.397 7.97687C102.397 8.15388 102.498 8.28665 102.701 8.37516C102.903 8.46367 103.229 8.55534 103.677 8.65017C104.183 8.75764 104.601 8.8746 104.929 9.00104C105.264 9.12116 105.552 9.31715 105.792 9.589C106.039 9.85453 106.162 10.218 106.162 10.6796C106.162 11.0779 106.051 11.4382 105.83 11.7606C105.609 12.0831 105.277 12.3423 104.834 12.5383C104.392 12.7279 103.855 12.8228 103.222 12.8228Z" fill="#F05835"/>
<path d="M108.35 7.54064H106.311V6.05179H112.257V7.54064H110.227V12.69H108.35V7.54064Z" fill="#F05835"/>
<path d="M115.936 5.91902C116.651 5.91902 117.286 6.06759 117.842 6.36473C118.405 6.65555 118.841 7.06332 119.151 7.58806C119.467 8.11279 119.625 8.70707 119.625 9.37089C119.625 10.0347 119.47 10.629 119.161 11.1537C118.857 11.6785 118.437 12.0894 117.899 12.3865C117.362 12.6773 116.755 12.8228 116.079 12.8228C115.389 12.8228 114.773 12.6773 114.229 12.3865C113.692 12.0894 113.272 11.6721 112.968 11.1348C112.671 10.5974 112.522 9.98413 112.522 9.29502V8.95363H117.71C117.64 8.51108 117.441 8.15388 117.112 7.88203C116.783 7.61018 116.385 7.47426 115.917 7.47426C115.601 7.47426 115.272 7.5438 114.931 7.68289C114.596 7.82197 114.321 8.01164 114.106 8.25188L112.997 7.07597C113.319 6.73457 113.746 6.4564 114.277 6.24145C114.808 6.0265 115.361 5.91902 115.936 5.91902ZM116.079 11.4003C116.521 11.4003 116.885 11.2833 117.169 11.0494C117.454 10.8155 117.631 10.4931 117.7 10.0821H114.457C114.533 10.4931 114.71 10.8155 114.988 11.0494C115.272 11.2833 115.636 11.4003 116.079 11.4003Z" fill="#F05835"/>
<path d="M123.185 10.2813L122.483 11.0304V12.69H120.624V6.05179H122.483V8.81138L125.053 6.05179H127.12L124.408 8.99156L127.263 12.69H125.081L123.185 10.2813Z" fill="#F05835"/>
<path d="M89.4857 24.3631L88.1106 22.3052L86.7545 24.3631H84.6113L87.0295 21.006L84.7156 17.7249H86.8304L88.158 19.6405L89.4667 17.7249H91.4961L89.1822 20.9302L91.6478 24.3631H89.4857Z" fill="#F05835"/>
<path d="M95.1178 17.5921C95.8322 17.5921 96.4676 17.7407 97.024 18.0378C97.5866 18.3286 98.0228 18.7364 98.3326 19.2611C98.6487 19.7859 98.8068 20.3802 98.8068 21.044C98.8068 21.7078 98.6519 22.3021 98.3421 22.8268C98.0387 23.3515 97.6182 23.7625 97.0809 24.0596C96.5435 24.3504 95.9366 24.4958 95.2601 24.4958C94.571 24.4958 93.9546 24.3504 93.4109 24.0596C92.8735 23.7625 92.4531 23.3452 92.1496 22.8078C91.8525 22.2705 91.7039 21.6572 91.7039 20.9681V20.6267H96.8912C96.8216 20.1842 96.6225 19.827 96.2938 19.5551C95.965 19.2833 95.5667 19.1473 95.0989 19.1473C94.7828 19.1473 94.454 19.2169 94.1126 19.356C93.7776 19.4951 93.5025 19.6847 93.2876 19.925L92.1781 18.7491C92.5005 18.4077 92.9272 18.1295 93.4583 17.9145C93.9893 17.6996 94.5425 17.5921 95.1178 17.5921ZM95.2601 23.0734C95.7026 23.0734 96.0662 22.9564 96.3506 22.7225C96.6351 22.4886 96.8122 22.1661 96.8817 21.7552H93.6385C93.7143 22.1661 93.8914 22.4886 94.1695 22.7225C94.454 22.9564 94.8175 23.0734 95.2601 23.0734Z" fill="#F05835"/>
<path d="M101.126 19.2137H99.0874V17.7249H105.033V19.2137H103.004V24.3631H101.126V19.2137Z" fill="#F05835"/>
<path d="M107.238 19.2137H105.2V17.7249H111.146V19.2137H109.116V24.3631H107.238V19.2137Z" fill="#F05835"/>
<path d="M111.845 17.7249H113.723V24.3631H111.845V17.7249ZM112.784 17.2033C112.506 17.2033 112.278 17.1148 112.101 16.9378C111.93 16.7608 111.845 16.5363 111.845 16.2645C111.845 15.9926 111.934 15.7713 112.111 15.6007C112.288 15.4236 112.512 15.3351 112.784 15.3351C113.056 15.3351 113.28 15.4236 113.457 15.6007C113.634 15.7713 113.723 15.9926 113.723 16.2645C113.723 16.5363 113.634 16.7608 113.457 16.9378C113.28 17.1148 113.056 17.2033 112.784 17.2033Z" fill="#F05835"/>
<path d="M125.078 22.4446C125.448 22.8412 125.865 23.0167 126.443 23.0167C126.502 23.0167 126.56 23.0167 126.619 23.0102C127.789 22.9322 128.894 22.4706 129.72 22.074C132.002 20.9688 134.004 19.402 135.669 17.4126C137.04 15.7612 137.957 14.2334 138.568 12.5951C138.932 11.6069 139.069 10.8528 139.017 10.1376C138.978 9.71503 138.822 9.37046 138.516 9.0714L137.118 7.68012C137.008 7.5761 136.839 7.45258 136.657 7.45258C136.475 7.45258 136.319 7.5696 136.221 7.67362C136.215 7.68012 136.208 7.68662 136.202 7.69312C135.955 7.92067 135.721 8.16122 135.473 8.41477C135.343 8.54479 135.213 8.68132 135.083 8.81135L133.972 9.92307C133.627 10.2676 133.627 10.5212 133.972 10.8658C134.089 10.9828 134.206 11.0998 134.323 11.2168C134.667 11.5614 134.986 11.893 135.337 12.205C135.35 12.2115 135.356 12.2245 135.369 12.2375C135.857 12.7251 135.688 13.2322 135.636 13.4013C135.63 13.4208 135.623 13.4338 135.617 13.4533C135.317 14.1749 134.901 14.8511 134.264 15.6572L134.258 15.6637C133.114 17.0745 131.911 18.1667 130.578 19.0119C130.402 19.1224 130.227 19.2134 130.058 19.2979C129.915 19.3695 129.785 19.4345 129.674 19.506C129.655 19.519 129.629 19.532 129.603 19.545C129.434 19.6295 129.265 19.6685 129.096 19.6685C128.81 19.6685 128.543 19.5515 128.316 19.3175L126.918 17.9197C126.807 17.8091 126.645 17.6791 126.463 17.6791C126.294 17.6791 126.138 17.8026 126.04 17.9067C126.034 17.9132 126.034 17.9132 126.027 17.9197L123.778 20.1691C123.459 20.4877 123.459 20.7802 123.791 21.1248L123.797 21.1313C123.947 21.2938 124.109 21.4499 124.285 21.6189C124.545 21.8725 124.818 22.139 125.078 22.4446Z" fill="#F05835"/>
<path fill-rule="evenodd" clip-rule="evenodd" d="M124.352 23.0923L124.367 23.1087C124.933 23.7147 125.613 23.9895 126.443 23.9895C126.446 23.9895 126.449 23.9895 126.453 23.9895C126.502 23.9895 126.597 23.9896 126.701 23.9796C128.058 23.8853 129.295 23.357 130.141 22.9509L130.144 22.9495C132.552 21.7832 134.663 20.1298 136.415 18.0368L136.417 18.0342C137.844 16.3162 138.823 14.695 139.479 12.9351L139.481 12.9314C139.873 11.8677 140.052 10.9684 139.987 10.0671L139.986 10.0576L139.985 10.0482C139.926 9.40916 139.676 8.84727 139.2 8.37937L137.795 6.98111L137.785 6.97178C137.648 6.84278 137.238 6.47984 136.657 6.47984C136.087 6.47984 135.696 6.81545 135.526 6.99263C135.269 7.23074 135.027 7.47896 134.794 7.71815L134.781 7.73152C134.713 7.79929 134.646 7.86786 134.584 7.93172L134.582 7.93378C134.516 8.00118 134.455 8.06348 134.395 8.12353L133.284 9.23525M133.284 9.23525C133.057 9.46154 132.74 9.84927 132.74 10.3944C132.74 10.9396 133.057 11.3273 133.284 11.5536L133.635 11.9047C133.698 11.9682 133.763 12.0331 133.828 12.0989C134.092 12.3655 134.372 12.6478 134.67 12.914C134.674 12.9177 134.678 12.9215 134.682 12.9254C134.722 12.9655 134.732 12.9886 134.733 12.9909C134.734 12.9933 134.734 12.9952 134.734 12.9952C134.735 13.0089 134.733 13.0245 134.715 13.0869C134.713 13.0911 134.711 13.0958 134.709 13.101C134.459 13.6986 134.107 14.2813 133.536 15.0101L133.534 15.0117L133.502 15.051C132.415 16.3908 131.29 17.4083 130.058 18.1896C129.925 18.2735 129.784 18.3471 129.623 18.4279C129.617 18.431 129.61 18.4342 129.604 18.4374C129.482 18.4983 129.32 18.579 129.17 18.6736L129.168 18.675C129.146 18.6857 129.131 18.6904 129.122 18.6927C129.113 18.6949 129.104 18.6958 129.096 18.6958C129.089 18.6958 129.086 18.695 129.081 18.6928C129.074 18.6899 129.05 18.6778 129.013 18.6394L129.003 18.6296L127.606 17.2319C127.485 17.1111 127.072 16.7064 126.463 16.7064C125.881 16.7064 125.484 17.0803 125.343 17.2284L123.09 19.4813C122.838 19.7331 122.562 20.1231 122.568 20.6474C122.573 21.1597 122.846 21.5457 123.09 21.7993L123.095 21.8049C123.257 21.98 123.429 22.1456 123.589 22.2995L123.608 22.3176C123.87 22.5736 124.111 22.8097 124.337 23.0751L124.352 23.0923M124.285 21.6189L124.272 21.6064C124.101 21.4422 123.943 21.2899 123.797 21.1313L123.791 21.1248C123.459 20.7803 123.459 20.4877 123.778 20.1691L126.04 17.9067C126.138 17.8027 126.294 17.6791 126.463 17.6791C126.645 17.6791 126.807 17.8092 126.918 17.9197L128.315 19.3175C128.543 19.5515 128.81 19.6685 129.096 19.6685C129.265 19.6685 129.434 19.6295 129.603 19.545C129.629 19.532 129.655 19.519 129.674 19.506C129.785 19.4345 129.915 19.3695 130.058 19.298C130.227 19.2135 130.402 19.1224 130.578 19.0119C131.911 18.1667 133.113 17.0745 134.258 15.6637L134.264 15.6572C134.901 14.8511 135.317 14.1749 135.616 13.4533C135.62 13.4436 135.623 13.4354 135.626 13.4273C135.629 13.4192 135.633 13.411 135.636 13.4013C135.637 13.3981 135.638 13.3948 135.639 13.3914C135.694 13.2131 135.848 12.7159 135.369 12.2376C135.365 12.233 135.361 12.2283 135.357 12.224C135.351 12.2162 135.345 12.2092 135.337 12.2051C135.057 11.9559 134.797 11.6944 134.528 11.4237C134.461 11.3553 134.392 11.2863 134.323 11.2169L133.972 10.8658C133.627 10.5212 133.627 10.2677 133.972 9.9231L135.083 8.81137C135.148 8.74636 135.213 8.67972 135.278 8.61309C135.343 8.54645 135.408 8.47981 135.473 8.41479L135.483 8.40502C135.726 8.15506 135.958 7.91777 136.202 7.69315L136.221 7.67364C136.319 7.56962 136.475 7.4526 136.657 7.4526C136.839 7.4526 137.008 7.57613 137.118 7.68015L138.516 9.07142C138.822 9.37048 138.978 9.71505 139.017 10.1376C139.069 10.8528 138.932 11.6069 138.568 12.5951C137.957 14.2335 137.04 15.7613 135.668 17.4126C134.004 19.402 132.002 20.9688 129.72 22.074C128.894 22.4706 127.789 22.9322 126.619 23.0102C126.56 23.0167 126.502 23.0167 126.443 23.0167C125.864 23.0167 125.448 22.8412 125.078 22.4446C124.818 22.139 124.545 21.8725 124.285 21.6189Z" fill="#F05835"/>
</svg>
