<svg width="144" height="32" viewBox="0 0 144 32" fill="none" xmlns="http://www.w3.org/2000/svg">
<path d="M9.009 10.7864L11.7038 12.2395L10.1715 14.7757L7.39742 13.1113L7.47668 16.1495H4.46487L4.54413 13.1113L1.7701 14.7757L0.264194 12.2395L2.95897 10.7864L0.264194 9.3069L1.7701 6.77064L4.54413 8.46148L4.46487 5.39684H7.47668L7.39742 8.46148L10.1715 6.77064L11.7038 9.3069L9.009 10.7864ZM20.2521 6.13658C22.9116 6.13658 25.0076 6.92035 26.5399 8.4879C28.0722 10.0555 28.8384 12.3099 28.8384 15.2513C28.8384 17.3648 28.4245 19.1877 27.5967 20.7201C26.7865 22.2348 25.6328 23.3884 24.1357 24.181C22.6562 24.9736 20.939 25.3699 18.984 25.3699C17.9448 25.3699 16.9497 25.2466 15.9986 25C15.0475 24.771 14.2373 24.4452 13.568 24.0225L15.4702 20.2709C16.3684 20.905 17.5045 21.222 18.8783 21.222C20.1992 21.222 21.2648 20.861 22.075 20.1388C22.9028 19.3991 23.3872 18.3335 23.5281 16.9421C22.4713 17.8404 21.0887 18.2895 19.3802 18.2895C18.2178 18.2895 17.1522 18.0517 16.1835 17.5762C15.2148 17.083 14.4398 16.3961 13.8586 15.5155C13.295 14.6172 13.0132 13.5956 13.0132 12.4508C13.0132 11.2003 13.3302 10.0995 13.9643 9.14839C14.616 8.17968 15.4878 7.43994 16.5798 6.92916C17.6894 6.40077 18.9135 6.13658 20.2521 6.13658ZM20.622 14.5379C21.3793 14.5379 21.9958 14.3266 22.4713 13.9039C22.9469 13.4635 23.1846 12.8911 23.1846 12.1866C23.1846 11.4997 22.9469 10.9449 22.4713 10.5222C22.0134 10.0819 21.3881 9.86171 20.5955 9.86171C19.8558 9.86171 19.2482 10.0731 18.7726 10.4958C18.3147 10.9185 18.0857 11.4909 18.0857 12.213C18.0857 12.9175 18.3147 13.4812 18.7726 13.9039C19.2482 14.3266 19.8646 14.5379 20.622 14.5379ZM37.5677 13.2434C40.1568 13.2434 42.0678 13.7718 43.3007 14.8285C44.5512 15.8853 45.1765 17.2944 45.1765 19.0556C45.1765 20.2005 44.8771 21.2573 44.2782 22.226C43.697 23.1771 42.7987 23.9432 41.5834 24.5245C40.3858 25.0881 38.8975 25.3699 37.1186 25.3699C35.8152 25.3699 34.5207 25.2114 33.2349 24.8943C31.9668 24.5773 30.8748 24.1282 29.9589 23.5469L31.8347 19.6105C32.5744 20.1036 33.3846 20.4823 34.2653 20.7465C35.1635 21.0107 36.0618 21.1428 36.9601 21.1428C37.8583 21.1428 38.5716 20.9755 39.1 20.6408C39.646 20.2885 39.919 19.8042 39.919 19.1877C39.919 18.5713 39.6548 18.1045 39.1264 17.7875C38.5981 17.4705 37.6646 17.312 36.326 17.312H31.3063L32.231 6.50645H44.014V10.5486H36.5638L36.326 13.2434H37.5677ZM53.4569 6.13658C56.1164 6.13658 58.2124 6.92035 59.7447 8.4879C61.277 10.0555 62.0432 12.3099 62.0432 15.2513C62.0432 17.3648 61.6293 19.1877 60.8015 20.7201C59.9913 22.2348 58.8376 23.3884 57.3405 24.181C55.861 24.9736 54.1438 25.3699 52.1887 25.3699C51.1496 25.3699 50.1545 25.2466 49.2034 25C48.2523 24.771 47.4421 24.4452 46.7728 24.0225L48.675 20.2709C49.5732 20.905 50.7093 21.222 52.0831 21.222C53.404 21.222 54.4696 20.861 55.2798 20.1388C56.1076 19.3991 56.592 18.3335 56.7329 16.9421C55.6761 17.8404 54.2935 18.2895 52.585 18.2895C51.4226 18.2895 50.357 18.0517 49.3883 17.5762C48.4196 17.083 47.6446 16.3961 47.0634 15.5155C46.4998 14.6172 46.218 13.5956 46.218 12.4508C46.218 11.2003 46.535 10.0995 47.1691 9.14839C47.8207 8.17968 48.6926 7.43994 49.7846 6.92916C50.8942 6.40077 52.1183 6.13658 53.4569 6.13658ZM53.8267 14.5379C54.5841 14.5379 55.2006 14.3266 55.6761 13.9039C56.1517 13.4635 56.3894 12.8911 56.3894 12.1866C56.3894 11.4997 56.1517 10.9449 55.6761 10.5222C55.2182 10.0819 54.5929 9.86171 53.8003 9.86171C53.0606 9.86171 52.4529 10.0731 51.9774 10.4958C51.5195 10.9185 51.2905 11.4909 51.2905 12.213C51.2905 12.9175 51.5195 13.4812 51.9774 13.9039C52.4529 14.3266 53.0694 14.5379 53.8267 14.5379ZM70.7725 13.2434C73.3616 13.2434 75.2726 13.7718 76.5055 14.8285C77.756 15.8853 78.3813 17.2944 78.3813 19.0556C78.3813 20.2005 78.0818 21.2573 77.483 22.226C76.9018 23.1771 76.0035 23.9432 74.7882 24.5245C73.5906 25.0881 72.1023 25.3699 70.3234 25.3699C69.02 25.3699 67.7255 25.2114 66.4397 24.8943C65.1716 24.5773 64.0796 24.1282 63.1637 23.5469L65.0395 19.6105C65.7792 20.1036 66.5894 20.4823 67.4701 20.7465C68.3683 21.0107 69.2666 21.1428 70.1648 21.1428C71.0631 21.1428 71.7764 20.9755 72.3048 20.6408C72.8508 20.2885 73.1238 19.8042 73.1238 19.1877C73.1238 18.5713 72.8596 18.1045 72.3312 17.7875C71.8028 17.4705 70.8694 17.312 69.5308 17.312H64.5111L65.4358 6.50645H77.2188V10.5486H69.7686L69.5308 13.2434H70.7725Z" fill="white"/>
<path d="M87.6824 6.22081H90.9092C91.6566 6.22081 92.3196 6.36054 92.898 6.64001C93.4764 6.91947 93.9248 7.31592 94.2433 7.82935C94.5618 8.34279 94.721 8.94396 94.721 9.63287C94.721 10.3218 94.5618 10.9229 94.2433 11.4364C93.9248 11.9498 93.4764 12.3463 92.898 12.6257C92.3196 12.9052 91.6566 13.0449 90.9092 13.0449H87.6824V6.22081ZM90.8312 11.5046C91.4162 11.5046 91.8841 11.3389 92.2351 11.0074C92.5925 10.676 92.7712 10.2178 92.7712 9.63287C92.7712 9.04794 92.5925 8.58975 92.2351 8.2583C91.8841 7.92684 91.4162 7.76111 90.8312 7.76111H89.6127V11.5046H90.8312ZM98.8951 6.08433C99.6295 6.08433 100.283 6.23706 100.855 6.54252C101.433 6.84148 101.881 7.26068 102.2 7.80011C102.525 8.33954 102.687 8.95046 102.687 9.63287C102.687 10.3153 102.528 10.9262 102.21 11.4656C101.898 12.0051 101.466 12.4275 100.913 12.733C100.361 13.0319 99.7368 13.1814 99.0414 13.1814C98.3329 13.1814 97.6993 13.0319 97.1404 12.733C96.5879 12.4275 96.1557 11.9986 95.8438 11.4461C95.5383 10.8937 95.3856 10.2633 95.3856 9.55488V9.20392H100.718C100.647 8.74898 100.442 8.38178 100.104 8.10232C99.766 7.82285 99.3566 7.68312 98.8756 7.68312C98.5507 7.68312 98.2127 7.75461 97.8618 7.89759C97.5173 8.04058 97.2346 8.23555 97.0136 8.48252L95.873 7.27368C96.2045 6.92272 96.6432 6.63676 97.1891 6.41579C97.735 6.19482 98.3037 6.08433 98.8951 6.08433ZM99.0414 11.7191C99.4963 11.7191 99.87 11.5989 100.162 11.3584C100.455 11.1179 100.637 10.7865 100.708 10.364H97.3743C97.4523 10.7865 97.6343 11.1179 97.9202 11.3584C98.2127 11.5989 98.5864 11.7191 99.0414 11.7191ZM106.113 13.1814C105.56 13.1814 105.024 13.1132 104.504 12.9767C103.984 12.8402 103.562 12.6582 103.237 12.4308L103.87 11.0074C104.176 11.2089 104.53 11.3714 104.933 11.4949C105.336 11.6184 105.732 11.6801 106.122 11.6801C106.863 11.6801 107.234 11.4949 107.234 11.1244C107.234 10.9294 107.127 10.7865 106.912 10.6955C106.704 10.598 106.366 10.4973 105.898 10.3933C105.385 10.2828 104.956 10.1658 104.611 10.0423C104.267 9.91233 103.971 9.70761 103.724 9.42814C103.477 9.14868 103.354 8.77173 103.354 8.29729C103.354 7.88135 103.468 7.50764 103.695 7.17619C103.922 6.83823 104.26 6.57177 104.709 6.37679C105.164 6.18182 105.719 6.08433 106.376 6.08433C106.824 6.08433 107.266 6.13632 107.702 6.24031C108.137 6.3378 108.521 6.48403 108.852 6.679L108.257 8.11207C107.607 7.76111 106.977 7.58563 106.366 7.58563C105.983 7.58563 105.703 7.64413 105.528 7.76111C105.352 7.8716 105.265 8.01783 105.265 8.1998C105.265 8.38178 105.369 8.51826 105.577 8.60925C105.784 8.70024 106.119 8.79448 106.581 8.89196C107.101 9.00245 107.529 9.12268 107.867 9.25267C108.212 9.37615 108.508 9.57762 108.755 9.85709C109.008 10.1301 109.135 10.5038 109.135 10.9782C109.135 11.3876 109.021 11.7581 108.794 12.0895C108.566 12.421 108.225 12.6875 107.77 12.8889C107.315 13.0839 106.763 13.1814 106.113 13.1814ZM111.384 7.75136H109.288V6.22081H115.4V7.75136H113.314V13.0449H111.384V7.75136ZM119.183 6.08433C119.917 6.08433 120.57 6.23706 121.142 6.54252C121.721 6.84148 122.169 7.26068 122.488 7.80011C122.813 8.33954 122.975 8.95046 122.975 9.63287C122.975 10.3153 122.816 10.9262 122.497 11.4656C122.185 12.0051 121.753 12.4275 121.201 12.733C120.648 13.0319 120.024 13.1814 119.329 13.1814C118.621 13.1814 117.987 13.0319 117.428 12.733C116.876 12.4275 116.443 11.9986 116.131 11.4461C115.826 10.8937 115.673 10.2633 115.673 9.55488V9.20392H121.006C120.934 8.74898 120.73 8.38178 120.392 8.10232C120.054 7.82285 119.644 7.68312 119.163 7.68312C118.838 7.68312 118.5 7.75461 118.149 7.89759C117.805 8.04058 117.522 8.23555 117.301 8.48252L116.161 7.27368C116.492 6.92272 116.931 6.63676 117.477 6.41579C118.023 6.19482 118.591 6.08433 119.183 6.08433ZM119.329 11.7191C119.784 11.7191 120.158 11.5989 120.45 11.3584C120.743 11.1179 120.925 10.7865 120.996 10.364H117.662C117.74 10.7865 117.922 11.1179 118.208 11.3584C118.5 11.5989 118.874 11.7191 119.329 11.7191ZM126.634 10.5687L125.913 11.3389V13.0449H124.002V6.22081H125.913V9.05769L128.555 6.22081H130.68L127.892 9.24292L130.826 13.0449H128.584L126.634 10.5687ZM91.9913 25.0449L90.5778 22.9294L89.1837 25.0449H86.9805L89.4664 21.5939L87.0877 18.2208H89.2617L90.6265 20.1901L91.9719 18.2208H94.0581L91.6794 21.5159L94.2141 25.0449H91.9913ZM97.7813 18.0843C98.5157 18.0843 99.1688 18.2371 99.7407 18.5425C100.319 18.8415 100.768 19.2607 101.086 19.8001C101.411 20.3395 101.574 20.9505 101.574 21.6329C101.574 22.3153 101.414 22.9262 101.096 23.4656C100.784 24.0051 100.352 24.4275 99.7992 24.733C99.2468 25.0319 98.6229 25.1814 97.9275 25.1814C97.2191 25.1814 96.5854 25.0319 96.0265 24.733C95.4741 24.4275 95.0419 23.9986 94.7299 23.4461C94.4244 22.8937 94.2717 22.2633 94.2717 21.5549V21.2039H99.6043C99.5328 20.749 99.3281 20.3818 98.9901 20.1023C98.6521 19.8229 98.2427 19.6831 97.7618 19.6831C97.4368 19.6831 97.0988 19.7546 96.7479 19.8976C96.4034 20.0406 96.1207 20.2355 95.8997 20.4825L94.7591 19.2737C95.0906 18.9227 95.5293 18.6368 96.0752 18.4158C96.6212 18.1948 97.1898 18.0843 97.7813 18.0843ZM97.9275 23.7191C98.3824 23.7191 98.7561 23.5989 99.0486 23.3584C99.3411 23.1179 99.523 22.7865 99.5945 22.364H96.2605C96.3384 22.7865 96.5204 23.1179 96.8064 23.3584C97.0988 23.5989 97.4725 23.7191 97.9275 23.7191ZM103.958 19.7514H101.862V18.2208H107.974V19.7514H105.888V25.0449H103.958V19.7514ZM110.241 19.7514H108.145V18.2208H114.258V19.7514H112.172V25.0449H110.241V19.7514ZM114.977 18.2208H116.907V25.0449H114.977V18.2208ZM115.942 17.6846C115.656 17.6846 115.422 17.5936 115.24 17.4117C115.065 17.2297 114.977 16.999 114.977 16.7195C114.977 16.44 115.068 16.2126 115.25 16.0371C115.432 15.8551 115.663 15.7641 115.942 15.7641C116.222 15.7641 116.452 15.8551 116.634 16.0371C116.816 16.2126 116.907 16.44 116.907 16.7195C116.907 16.999 116.816 17.2297 116.634 17.4117C116.452 17.5936 116.222 17.6846 115.942 17.6846Z" fill="white"/>
<path d="M128.581 23.073C128.962 23.4807 129.389 23.6611 129.984 23.6611C130.044 23.6611 130.105 23.6611 130.165 23.6544C131.368 23.5742 132.504 23.0997 133.353 22.692C135.699 21.5559 137.757 19.9452 139.468 17.9001C140.878 16.2025 141.821 14.6319 142.449 12.9477C142.823 11.9318 142.963 11.1565 142.91 10.4214C142.87 9.98695 142.709 9.63273 142.395 9.32529L140.958 7.89505C140.845 7.78812 140.671 7.66113 140.484 7.66113C140.297 7.66113 140.136 7.78143 140.036 7.88837C140.029 7.89505 140.023 7.90173 140.016 7.90842C139.762 8.14234 139.521 8.38962 139.268 8.65027C139.134 8.78394 139 8.92429 138.866 9.05796L137.724 10.2008C137.369 10.555 137.369 10.8157 137.724 11.1699C137.844 11.2902 137.964 11.4105 138.085 11.5308C138.439 11.885 138.766 12.2259 139.127 12.5467C139.141 12.5534 139.147 12.5667 139.161 12.5801C139.662 13.0813 139.488 13.6027 139.435 13.7764C139.428 13.7965 139.421 13.8098 139.415 13.8299C139.107 14.5717 138.679 15.2668 138.024 16.0956L138.018 16.1022C136.841 17.5525 135.605 18.6753 134.235 19.5442C134.054 19.6578 133.874 19.7514 133.7 19.8382C133.553 19.9118 133.42 19.9786 133.306 20.0521C133.286 20.0655 133.259 20.0788 133.232 20.0922C133.059 20.1791 132.885 20.2192 132.711 20.2192C132.417 20.2192 132.143 20.0989 131.909 19.8583L130.472 18.4214C130.359 18.3077 130.191 18.1741 130.004 18.1741C129.831 18.1741 129.67 18.3011 129.57 18.408C129.563 18.4147 129.563 18.4147 129.557 18.4214L127.244 20.7338C126.917 21.0613 126.917 21.3621 127.257 21.7163L127.264 21.723C127.418 21.89 127.585 22.0504 127.765 22.2242C128.033 22.4849 128.313 22.7589 128.581 23.073Z" fill="white"/>
<path fill-rule="evenodd" clip-rule="evenodd" d="M127.834 23.7388L127.85 23.7557C128.432 24.3786 129.131 24.6611 129.984 24.6611C129.987 24.6611 129.991 24.6611 129.994 24.6611C130.045 24.6612 130.143 24.6613 130.25 24.651C131.645 24.554 132.916 24.0109 133.786 23.5935L133.789 23.592C136.264 22.393 138.435 20.6934 140.235 18.5417L140.237 18.5391C141.704 16.7729 142.711 15.1064 143.386 13.2972L143.387 13.2934C143.79 12.1998 143.975 11.2754 143.907 10.3488L143.907 10.3391L143.906 10.3294C143.845 9.67249 143.588 9.09486 143.098 8.61386L141.654 7.17643L141.644 7.16685C141.503 7.03423 141.082 6.66113 140.484 6.66113C139.899 6.66113 139.497 7.00614 139.322 7.18828C139.057 7.43305 138.809 7.68823 138.569 7.93412L138.556 7.94787C138.486 8.01753 138.417 8.08802 138.353 8.15367L138.351 8.15579C138.284 8.22507 138.221 8.28912 138.159 8.35085L137.017 9.49371M137.017 9.49371C136.784 9.72634 136.458 10.1249 136.458 10.6854C136.458 11.2458 136.784 11.6444 137.017 11.877L137.377 12.2379C137.443 12.3032 137.509 12.3699 137.576 12.4376C137.848 12.7117 138.136 13.0019 138.442 13.2755C138.446 13.2793 138.449 13.2832 138.453 13.2872C138.495 13.3284 138.505 13.3521 138.506 13.3545C138.507 13.357 138.507 13.359 138.507 13.359C138.508 13.373 138.507 13.3891 138.488 13.4532C138.486 13.4576 138.484 13.4624 138.482 13.4677C138.225 14.082 137.863 14.6811 137.275 15.4303L137.274 15.4319L137.241 15.4723C136.124 16.8497 134.967 17.8956 133.701 18.6988C133.564 18.785 133.419 18.8607 133.253 18.9438C133.247 18.947 133.24 18.9503 133.233 18.9536C133.108 19.0162 132.942 19.0991 132.788 19.1964L132.785 19.1978C132.763 19.2088 132.748 19.2137 132.738 19.216C132.729 19.2182 132.72 19.2192 132.711 19.2192C132.704 19.2192 132.701 19.2184 132.696 19.2161C132.689 19.2131 132.665 19.2008 132.626 19.1612L132.616 19.1511L131.179 17.7143C131.055 17.5901 130.631 17.1741 130.004 17.1741C129.406 17.1741 128.998 17.5585 128.853 17.7107L126.537 20.0267C126.278 20.2855 125.995 20.6864 126 21.2254C126.006 21.7521 126.286 22.1489 126.537 22.4096L126.542 22.4153C126.709 22.5954 126.886 22.7656 127.05 22.9238L127.07 22.9424C127.34 23.2056 127.587 23.4483 127.819 23.7211L127.834 23.7388M127.765 22.2242L127.752 22.2113C127.577 22.0425 127.414 21.8859 127.264 21.723L127.257 21.7163C126.917 21.3621 126.917 21.0613 127.244 20.7338L129.57 18.408C129.67 18.3011 129.831 18.1741 130.004 18.1741C130.191 18.1741 130.359 18.3077 130.472 18.4214L131.909 19.8583C132.143 20.0989 132.417 20.2192 132.711 20.2192C132.885 20.2192 133.059 20.1791 133.232 20.0922C133.259 20.0788 133.286 20.0655 133.306 20.0521C133.42 19.9786 133.553 19.9118 133.7 19.8382C133.874 19.7514 134.054 19.6578 134.235 19.5442C135.605 18.6753 136.841 17.5525 138.018 16.1022L138.024 16.0956C138.679 15.2668 139.107 14.5717 139.415 13.8299C139.418 13.8199 139.421 13.8115 139.425 13.8032C139.428 13.7948 139.431 13.7864 139.435 13.7764C139.436 13.7731 139.437 13.7697 139.438 13.7662C139.494 13.583 139.652 13.0719 139.161 12.5801C139.156 12.5754 139.152 12.5706 139.148 12.5662C139.142 12.5581 139.136 12.551 139.127 12.5467C138.839 12.2906 138.572 12.0217 138.296 11.7434C138.226 11.6731 138.156 11.6022 138.085 11.5308L137.724 11.1699C137.369 10.8157 137.369 10.555 137.724 10.2008L138.866 9.05796C138.933 8.99112 139 8.92262 139.067 8.85412C139.134 8.78561 139.201 8.71711 139.267 8.65027L139.277 8.64023C139.528 8.38326 139.765 8.13933 140.016 7.90842L140.036 7.88837C140.136 7.78143 140.297 7.66113 140.484 7.66113C140.671 7.66113 140.845 7.78812 140.958 7.89505L142.395 9.32529C142.709 9.63273 142.87 9.98695 142.91 10.4214C142.963 11.1565 142.823 11.9318 142.449 12.9477C141.821 14.6319 140.878 16.2025 139.468 17.9001C137.757 19.9452 135.699 21.5559 133.353 22.692C132.504 23.0997 131.368 23.5742 130.165 23.6544C130.105 23.6611 130.044 23.6611 129.984 23.6611C129.389 23.6611 128.962 23.4807 128.581 23.073C128.313 22.7589 128.033 22.4849 127.765 22.2242Z" fill="white"/>
</svg>
