<svg width="16" height="16" viewBox="0 0 16 16" fill="none" xmlns="http://www.w3.org/2000/svg">
<path d="M8 0C3.5888 0 0 3.58885 0 8.00005C0 12.4112 3.5888 16 8 16C12.4112 16 16 12.4112 16 8.00005C16 3.58885 12.4112 0 8 0ZM8 14.5455C4.39079 14.5455 1.45455 11.6092 1.45455 8.00005C1.45455 4.39088 4.39079 1.45455 8 1.45455C11.6092 1.45455 14.5455 4.39088 14.5455 8.00005C14.5455 11.6092 11.6092 14.5455 8 14.5455Z" fill="#373736" fill-opacity="0.5"/>
<path d="M8.00002 3.39404C7.46543 3.39404 7.03052 3.82924 7.03052 4.36418C7.03052 4.89863 7.46543 5.33344 8.00002 5.33344C8.53461 5.33344 8.96952 4.89863 8.96952 4.36418C8.96952 3.82924 8.53461 3.39404 8.00002 3.39404Z" fill="#373736" fill-opacity="0.5"/>
<path d="M7.99998 6.78809C7.59833 6.78809 7.27271 7.11371 7.27271 7.51536V11.879C7.27271 12.2806 7.59833 12.6063 7.99998 12.6063C8.40163 12.6063 8.72725 12.2806 8.72725 11.879V7.51536C8.72725 7.11371 8.40163 6.78809 7.99998 6.78809Z" fill="#373736" fill-opacity="0.5"/>
</svg>
