<svg width="24" height="25" viewBox="0 0 24 25" fill="none" xmlns="http://www.w3.org/2000/svg">
<circle cx="12" cy="12.9902" r="12" fill="url(#paint0_radial)"/>
<circle cx="12" cy="12.9902" r="12" fill="url(#paint1_linear)"/>
<path d="M6.66699 10.9035C6.70283 10.6503 6.73014 10.3958 6.7757 10.1445C7.03395 8.72118 8.0416 7.75278 9.48237 7.70315C11.2171 7.64355 12.9571 7.6404 14.6916 7.70289C16.2597 7.75935 17.3953 8.92047 17.4443 10.4891C17.4964 12.1548 17.4964 13.8245 17.4443 15.4902C17.3953 17.0589 16.2601 18.2199 14.6917 18.2764C12.9572 18.3391 11.2168 18.3406 9.4825 18.2755C7.91411 18.2166 6.82992 17.0528 6.72502 15.4818C6.71596 15.3459 6.68682 15.2112 6.66699 15.076C6.66699 13.6851 6.66699 12.2942 6.66699 10.9035ZM12.0767 17.3468C12.8704 17.3468 13.665 17.3705 14.4577 17.3413C15.7007 17.2952 16.4652 16.5534 16.4942 15.3117C16.5301 13.7644 16.5301 12.2151 16.4942 10.6677C16.4652 9.4262 15.7001 8.66708 14.4577 8.64069C12.8808 8.60735 11.3022 8.60761 9.72526 8.64069C8.49231 8.66656 7.72558 9.41032 7.6921 10.6381C7.64957 12.205 7.64957 13.7745 7.6921 15.3413C7.72558 16.569 8.49231 17.2956 9.72539 17.3413C10.5081 17.3704 11.2929 17.3468 12.0767 17.3468Z" fill="white"/>
<path d="M12.0756 10.2344C10.5535 10.2344 9.31934 11.4684 9.31934 12.9905C9.31934 14.5128 10.5535 15.7468 12.0756 15.7468C13.5979 15.7468 14.8319 14.5128 14.8319 12.9905C14.8319 11.4684 13.5979 10.2344 12.0756 10.2344ZM12.0756 14.7979C11.0774 14.7979 10.2683 13.9887 10.2683 12.9905C10.2683 11.9923 11.0774 11.1832 12.0756 11.1832C13.0738 11.1832 13.883 11.9923 13.883 12.9905C13.883 13.9887 13.0738 14.7979 12.0756 14.7979Z" fill="white"/>
<path d="M15.6484 10.1079C15.6484 10.47 15.3548 10.7636 14.9927 10.7636C14.6306 10.7636 14.3369 10.47 14.3369 10.1079C14.3369 9.74571 14.6306 9.45215 14.9927 9.45215C15.3548 9.45215 15.6484 9.74571 15.6484 10.1079Z" fill="white"/>
<defs>
<radialGradient id="paint0_radial" cx="0" cy="0" r="1" gradientUnits="userSpaceOnUse" gradientTransform="translate(-7.57895 35.7271) rotate(-41.1859) scale(46.9964)">
<stop stop-color="#FAE100"/>
<stop offset="0.0544" stop-color="#FADC04"/>
<stop offset="0.1167" stop-color="#FBCE0E"/>
<stop offset="0.1829" stop-color="#FCB720"/>
<stop offset="0.2514" stop-color="#FE9838"/>
<stop offset="0.3054" stop-color="#FF7950"/>
<stop offset="0.645201" stop-color="#FF1C74"/>
<stop offset="1" stop-color="#6C1CD1"/>
</radialGradient>
<linearGradient id="paint1_linear" x1="10.6667" y1="12.9902" x2="0.999998" y2="30.3236" gradientUnits="userSpaceOnUse">
<stop offset="0.108101" stop-color="#FAE100" stop-opacity="0"/>
<stop offset="0.464126" stop-color="#FCA800" stop-opacity="0.305882"/>
<stop offset="0.708333" stop-color="#FE7300" stop-opacity="0.627451"/>
<stop offset="0.8685" stop-color="#FF5200" stop-opacity="0.866667"/>
<stop offset="1" stop-color="#FF4500"/>
</linearGradient>
</defs>
</svg>
