<svg width="16" height="16" viewBox="0 0 16 16" fill="none" xmlns="http://www.w3.org/2000/svg">
<path d="M14.9026 1.09838C13.4381 -0.366122 11.0637 -0.366122 9.59924 1.09835L6.46504 4.23255C4.95019 5.74746 5.09044 8.16122 6.46504 9.53588C6.69523 9.76606 6.94992 9.95375 7.21885 10.1079L7.79089 9.53588C8.16607 9.16062 8.03401 8.72197 8.02726 8.40543C7.94492 8.34706 7.86482 8.28397 7.79089 8.21003C7.08548 7.50468 7.05376 6.29549 7.79089 5.55836C7.90036 5.44889 10.8586 2.49067 10.925 2.42423C11.6562 1.69301 12.8455 1.69301 13.5767 2.42423C14.3079 3.15545 14.3079 4.34467 13.5767 5.07589L11.505 7.14756C11.5649 7.47903 11.9245 8.26422 11.7395 9.55947C11.7486 9.5506 11.7594 9.54488 11.7684 9.53591L14.9026 6.40171C16.367 4.93721 16.367 2.56289 14.9026 1.09838Z" fill="#818181"/>
<path d="M9.7787 6.22145C9.54854 5.99126 9.29382 5.80357 9.02495 5.64941L8.45292 6.22145C8.07766 6.59664 8.20973 7.03529 8.21648 7.35183C8.29888 7.4102 8.37898 7.47329 8.45292 7.54723C9.15832 8.25264 9.19004 9.46177 8.45292 10.1989C8.3432 10.3086 5.13994 13.5119 5.07584 13.576C4.34462 14.3072 3.1554 14.3072 2.42418 13.576C1.69296 12.8447 1.69296 11.6555 2.42418 10.9243L4.73878 8.6097C4.67887 8.27823 4.31931 7.49304 4.50428 6.19779C4.49525 6.20667 4.48437 6.21245 4.47537 6.22142L1.09833 9.59852C-0.36611 11.063 -0.36611 13.4373 1.09833 14.9018C2.56284 16.3663 4.93712 16.3663 6.40163 14.9018L9.7787 11.5248C11.2655 10.038 11.1842 7.62692 9.7787 6.22145Z" fill="#818181"/>
</svg>
