<svg width="150" height="38" viewBox="0 0 150 38" fill="none" xmlns="http://www.w3.org/2000/svg">
<g clip-path="url(#clip0)">
<path d="M26.8401 23.9777L32.0125 31.2692L36.0665 37.0183C36.4859 37.7194 37.3247 37.9998 38.0236 37.9998C39.841 37.8596 40.8195 35.8965 39.841 34.3541L31.4533 21.4537C31.4533 21.4537 31.4533 21.3135 31.3135 21.3135C29.0768 18.9297 25.5819 21.3135 26.8401 23.9777Z" fill="#F05835"/>
<path d="M25.5824 20.3318C26.8177 20.3318 27.8191 19.3273 27.8191 18.0883C27.8191 16.8492 26.8177 15.8447 25.5824 15.8447C24.3471 15.8447 23.3457 16.8492 23.3457 18.0883C23.3457 19.3273 24.3471 20.3318 25.5824 20.3318Z" fill="#F05835"/>
<path d="M30.6147 32.9521C30.1954 32.3912 29.4964 32.1108 28.7974 32.1108H11.8822C6.8496 32.1108 7.96796 30.989 9.50571 27.9041V27.7639L23.9046 4.62736C23.9046 4.48714 24.0444 4.48714 24.0444 4.34692C24.0444 4.34692 24.0444 4.34692 24.0444 4.2067V4.06648C24.8832 2.38382 24.1842 0.981607 22.7862 0.2805C21.3883 -0.560829 19.4311 -0.140165 18.7322 1.40227L0.279236 34.6347C-0.559534 36.037 0.558826 37.8598 2.09657 37.8598H27.9586C30.6147 38.0001 32.0127 35.0554 30.6147 32.9521Z" fill="#F05835"/>
<path d="M51.4443 27.2028V10.7968C51.4443 10.0957 51.5841 9.39464 51.8637 9.11419C52.2831 8.55331 52.7025 8.41309 53.1219 8.41309C53.6811 8.41309 54.1004 8.55331 54.38 8.97397C54.6596 9.39464 54.7994 9.95552 54.7994 10.6566V27.0625C54.7994 27.7636 54.6596 28.4647 54.38 28.7452C54.1004 29.3061 53.6811 29.4463 53.1219 29.4463C52.7025 29.4463 52.2831 29.3061 51.8637 28.8854C51.5841 28.4647 51.4443 27.9039 51.4443 27.2028Z" fill="white"/>
<path d="M59.9716 12.3391C59.5523 12.3391 59.1329 12.1989 58.7135 11.9185C58.4339 11.638 58.1543 11.0771 58.1543 10.5162C58.1543 9.95535 58.2941 9.53469 58.7135 9.25425C58.9931 8.9738 59.4125 8.69336 59.8318 8.69336C60.2512 8.69336 60.6706 8.83358 60.9502 9.11402C61.2298 9.39447 61.5094 9.95535 61.5094 10.5162C61.5094 11.0771 61.3696 11.4978 61.09 11.9185C60.8104 12.1989 60.391 12.3391 59.9716 12.3391ZM61.6492 16.2653V27.2026C61.6492 27.9037 61.5094 28.6048 61.2298 28.8852C60.9502 29.3059 60.5308 29.4461 59.9716 29.4461C59.5523 29.4461 59.1329 29.3059 58.7135 28.8852C58.4339 28.4646 58.2941 27.9037 58.2941 27.2026V16.4055C58.2941 15.7044 58.4339 15.1435 58.7135 14.7229C58.9931 14.3022 59.4125 14.162 59.9716 14.162C60.391 14.162 60.8104 14.3022 61.2298 14.7229C61.3696 15.0033 61.6492 15.5642 61.6492 16.2653Z" fill="white"/>
<path d="M76.0479 22.0141V27.0621C76.0479 27.9034 75.9081 28.4643 75.6285 28.885C75.3489 29.3056 74.9295 29.4458 74.3703 29.4458C73.8111 29.4458 73.3918 29.3056 73.1122 28.885C72.8326 28.4643 72.6928 27.9034 72.6928 27.0621V21.0326C72.6928 20.051 72.6928 19.3499 72.553 18.789C72.553 18.2281 72.2734 17.8075 72.1336 17.527C71.854 17.2466 71.4346 16.9661 70.8754 16.9661C69.7571 16.9661 69.0581 17.3868 68.7785 18.2281C68.4989 19.0695 68.2193 20.3314 68.2193 21.8739V27.0621C68.2193 27.9034 68.0795 28.4643 67.8 28.885C67.5204 29.3056 67.101 29.4458 66.5418 29.4458C65.9826 29.4458 65.5632 29.3056 65.2836 28.885C65.0041 28.4643 64.8643 27.9034 64.8643 27.0621V16.265C64.8643 15.5639 65.0041 15.003 65.2836 14.5824C65.5632 14.1617 65.9826 14.0215 66.402 14.0215C66.8214 14.0215 67.2408 14.1617 67.5204 14.5824C67.8 14.8628 67.9397 15.4237 67.9397 15.9846V16.4052C68.4989 15.5639 69.1979 15.003 69.7571 14.7226C70.4561 14.3019 71.155 14.1617 71.9938 14.1617C72.8326 14.1617 73.5315 14.3019 74.0907 14.7226C74.6499 15.1433 75.2091 15.7041 75.6285 16.4052C76.1877 15.5639 76.7468 15.003 77.4458 14.7226C78.1448 14.3019 78.8438 14.1617 79.5427 14.1617C80.5213 14.1617 81.2203 14.3019 81.9192 14.7226C82.6182 15.1433 83.0376 15.7041 83.457 16.4052C83.7366 17.1064 83.8764 18.2281 83.8764 19.6303V27.0621C83.8764 27.9034 83.7366 28.4643 83.457 28.885C83.1774 29.3056 82.758 29.4458 82.1988 29.4458C81.6397 29.4458 81.2203 29.3056 80.9407 28.885C80.6611 28.4643 80.5213 27.9034 80.5213 27.0621V20.6119C80.5213 19.7706 80.5213 19.2097 80.3815 18.6488C80.2417 18.0879 80.1019 17.8075 79.8223 17.3868C79.5427 17.1064 79.1234 16.8259 78.5642 16.8259C78.1448 16.8259 77.7254 16.9661 77.306 17.2466C76.8866 17.527 76.607 17.9477 76.3274 18.5086C76.1877 19.3499 76.0479 20.4717 76.0479 22.0141Z" fill="white"/>
<path d="M95.4794 27.3429C94.6406 28.044 93.9416 28.6049 93.1029 28.8854C92.4039 29.306 91.5651 29.4462 90.5866 29.4462C89.7478 29.4462 89.0488 29.306 88.3499 28.8854C87.6509 28.4647 87.2315 28.044 86.8121 27.3429C86.3927 26.6418 86.2529 25.9407 86.2529 25.2396C86.2529 24.258 86.5325 23.2765 87.0917 22.5754C87.6509 21.8743 88.4896 21.3134 89.4682 21.033C89.7478 21.033 90.1672 20.8927 91.006 20.6123C91.8447 20.4721 92.5437 20.1916 93.1029 20.0514C93.6621 19.9112 94.361 19.6307 95.06 19.4905C95.06 18.509 94.7804 17.8079 94.5008 17.247C94.2212 16.8263 93.5223 16.5459 92.5437 16.5459C91.7049 16.5459 91.006 16.6861 90.5866 16.9665C90.1672 17.247 89.7478 17.6676 89.4682 18.2285C89.1886 18.7894 88.909 19.0699 88.7692 19.3503C88.6294 19.4905 88.3499 19.6307 87.9305 19.6307C87.5111 19.6307 87.2315 19.4905 86.9519 19.2101C86.6723 18.9296 86.5325 18.6492 86.5325 18.2285C86.5325 17.5274 86.6723 16.9665 87.0917 16.2654C87.5111 15.7045 88.2101 15.1437 89.0488 14.723C89.8876 14.3023 91.006 14.1621 92.2641 14.1621C93.6621 14.1621 94.9202 14.3023 95.759 14.723C96.5978 15.1437 97.1569 15.7045 97.5763 16.5459C97.8559 17.3872 98.1355 18.509 98.1355 19.9112C98.1355 20.7525 98.1355 21.5938 98.1355 22.1547C98.1355 22.7156 98.1355 23.4167 98.1355 24.258C98.1355 24.9592 98.2753 25.6603 98.4151 26.5016C98.5549 27.3429 98.6947 27.7636 98.6947 28.044C98.6947 28.4647 98.5549 28.7451 98.2753 29.1658C97.9957 29.4462 97.5763 29.5865 97.1569 29.5865C96.8773 29.5865 96.458 29.4462 96.1784 29.0256C96.3182 28.6049 95.8988 28.044 95.4794 27.3429ZM95.3396 21.8743C94.9202 22.0145 94.0814 22.2949 93.2427 22.5754C92.2641 22.8558 91.7049 22.9961 91.2856 23.1363C90.8662 23.2765 90.5866 23.4167 90.307 23.6972C90.0274 23.9776 89.8876 24.3983 89.8876 24.9592C89.8876 25.52 90.0274 26.0809 90.4468 26.3614C90.8662 26.782 91.2856 26.9223 91.9845 26.9223C92.6835 26.9223 93.2427 26.782 93.8019 26.3614C94.361 26.0809 94.7804 25.6603 95.06 25.0994C95.3396 24.5385 95.4794 23.5569 95.4794 22.2949V21.8743H95.3396Z" fill="white"/>
<path d="M110.298 27.7636L107.362 22.295L105.545 24.2581V27.343C105.545 28.0441 105.405 28.605 104.985 29.0256C104.706 29.4463 104.286 29.5865 103.867 29.5865C103.308 29.5865 102.888 29.4463 102.609 29.0256C102.329 28.605 102.189 28.0441 102.189 27.343V11.0773C102.189 10.236 102.329 9.53486 102.609 9.11419C102.888 8.69353 103.308 8.41309 103.867 8.41309C104.426 8.41309 104.846 8.55331 105.125 8.97397C105.405 9.39464 105.545 9.95552 105.545 10.7968V20.0515L109.319 15.5644C109.738 15.0035 110.158 14.5828 110.437 14.4426C110.717 14.3024 110.997 14.1622 111.276 14.1622C111.696 14.1622 111.975 14.3024 112.255 14.5828C112.534 14.8633 112.674 15.2839 112.674 15.7046C112.674 16.2655 112.255 16.9666 111.276 17.9481L109.459 19.771L112.814 25.9408C113.093 26.3614 113.233 26.7821 113.373 26.9223C113.513 27.2028 113.513 27.343 113.513 27.6234C113.513 28.1843 113.373 28.7452 113.093 29.0256C112.814 29.3061 112.394 29.5865 111.975 29.5865C111.556 29.5865 111.276 29.4463 110.997 29.1659C110.857 28.8854 110.577 28.4647 110.298 27.7636Z" fill="white"/>
<path d="M118.406 29.4463C117.847 29.4463 117.428 29.3061 117.148 28.8854C116.729 28.4648 116.589 28.0441 116.589 27.343C116.589 26.7821 116.729 26.2212 117.148 25.9408C117.428 25.5201 117.987 25.3799 118.406 25.3799C118.826 25.3799 119.385 25.5201 119.664 25.9408C120.084 26.3614 120.224 26.7821 120.224 27.343C120.224 28.0441 120.084 28.4648 119.664 28.8854C119.385 29.3061 118.965 29.4463 118.406 29.4463Z" fill="white"/>
<path d="M132.525 27.3429C131.687 28.044 130.988 28.6049 130.149 28.8854C129.45 29.306 128.611 29.4462 127.632 29.4462C126.794 29.4462 126.095 29.306 125.396 28.8854C124.697 28.4647 124.277 28.044 123.858 27.3429C123.578 26.6418 123.299 25.9407 123.299 25.2396C123.299 24.258 123.578 23.2765 124.138 22.5754C124.697 21.8743 125.536 21.3134 126.514 21.033C126.794 21.033 127.213 20.8927 128.052 20.6123C128.891 20.4721 129.59 20.1916 130.149 20.0514C130.708 19.9112 131.407 19.6307 132.106 19.4905C132.106 18.509 131.826 17.8079 131.547 17.247C131.267 16.8263 130.568 16.5459 129.59 16.5459C128.751 16.5459 128.052 16.6861 127.632 16.9665C127.213 17.247 126.794 17.6676 126.514 18.2285C126.235 18.7894 125.955 19.0699 125.815 19.3503C125.955 19.4905 125.815 19.6307 125.396 19.6307C124.976 19.6307 124.697 19.4905 124.417 19.2101C124.138 18.9296 123.998 18.6492 123.998 18.2285C123.998 17.5274 124.138 16.9665 124.557 16.2654C124.976 15.7045 125.675 15.1437 126.514 14.723C127.353 14.3023 128.471 14.1621 129.729 14.1621C131.127 14.1621 132.385 14.3023 133.224 14.723C134.063 15.1437 134.622 15.7045 135.042 16.5459C135.321 17.3872 135.601 18.509 135.601 19.9112C135.601 20.7525 135.601 21.5938 135.601 22.1547C135.601 22.7156 135.601 23.4167 135.601 24.258C135.601 24.9592 135.741 25.6603 135.88 26.5016C136.02 27.3429 136.16 27.7636 136.16 28.044C136.16 28.4647 136.02 28.7451 135.741 29.1658C135.461 29.4462 135.042 29.5865 134.622 29.5865C134.343 29.5865 133.923 29.4462 133.644 29.0256C133.224 28.6049 132.805 28.044 132.525 27.3429ZM132.246 21.8743C131.826 22.0145 130.988 22.2949 130.149 22.5754C129.17 22.8558 128.611 22.9961 128.192 23.1363C127.772 23.2765 127.493 23.4167 127.213 23.6972C126.933 23.9776 126.794 24.3983 126.794 24.9592C126.794 25.52 126.933 26.0809 127.353 26.3614C127.772 26.782 128.192 26.9223 128.891 26.9223C129.59 26.9223 130.149 26.782 130.708 26.3614C131.267 26.0809 131.687 25.6603 131.966 25.0994C132.246 24.5385 132.385 23.5569 132.385 22.2949V21.8743H132.246Z" fill="white"/>
<path d="M147.903 18.3686L141.752 26.0808H148.322C148.881 26.0808 149.301 26.221 149.58 26.5014C149.86 26.7819 150 27.2025 150 27.6232C150 28.0439 149.86 28.4645 149.58 28.6047C149.301 28.8852 148.881 29.0254 148.322 29.0254H139.235C138.536 29.0254 138.117 28.8852 137.837 28.6047C137.558 28.3243 137.418 27.9036 137.418 27.3428C137.418 27.0623 137.558 26.6416 137.698 26.3612C137.977 26.0808 138.397 25.3797 139.096 24.5383C139.794 23.5568 140.493 22.7154 141.053 22.0143C141.612 21.3132 142.171 20.6121 142.73 19.911C143.289 19.2099 143.709 18.649 143.988 18.2284C144.268 17.8077 144.548 17.387 144.827 17.1066H139.934C139.235 17.1066 138.676 17.1066 138.397 16.9664C137.977 16.8261 137.837 16.4055 137.837 15.8446C137.837 15.4239 137.977 15.0033 138.257 14.863C138.536 14.5826 138.956 14.4424 139.375 14.4424H147.064C147.763 14.4424 148.322 14.5826 148.741 14.863C149.161 15.1435 149.301 15.5642 149.301 16.125C149.301 16.2653 149.301 16.5457 149.161 16.8261C149.021 17.1066 149.021 17.2468 148.881 17.387C148.741 17.5273 148.602 17.6675 148.462 17.9479C148.322 17.9479 148.182 18.0881 147.903 18.3686Z" fill="white"/>
</g>
<defs>
<clipPath id="clip0">
<rect width="150" height="38" fill="white"/>
</clipPath>
</defs>
</svg>
