<svg width="129" height="32" viewBox="0 0 129 32" fill="none" xmlns="http://www.w3.org/2000/svg">
<g clip-path="url(#clip0)">
<path d="M23.0831 20.1918L27.5314 26.332L31.0179 31.1733C31.3785 31.7637 32.0999 31.9999 32.701 31.9999C34.2639 31.8818 35.1055 30.2287 34.2639 28.9298L27.0505 18.0663C27.0505 18.0663 27.0505 17.9482 26.9303 17.9482C25.0067 15.9408 22.0011 17.9482 23.0831 20.1918Z" fill="#F05835"/>
<path d="M22.0007 17.1219C23.0631 17.1219 23.9243 16.276 23.9243 15.2326C23.9243 14.1891 23.0631 13.3433 22.0007 13.3433C20.9384 13.3433 20.0771 14.1891 20.0771 15.2326C20.0771 16.276 20.9384 17.1219 22.0007 17.1219Z" fill="#F05835"/>
<path d="M26.3286 27.7491C25.9679 27.2768 25.3668 27.0406 24.7657 27.0406H10.2186C5.89054 27.0406 6.85233 26.096 8.17479 23.4982V23.3801L20.5578 3.8967C20.5578 3.77862 20.6781 3.77862 20.6781 3.66054C20.6781 3.66054 20.6781 3.66054 20.6781 3.54246V3.42438C21.3994 2.0074 20.7983 0.82659 19.596 0.236185C18.3938 -0.472303 16.7107 -0.118059 16.1096 1.18083L0.240026 29.1661C-0.481316 30.3469 0.480474 31.8819 1.80293 31.8819H24.0443C26.3286 32 27.5308 29.5203 26.3286 27.7491Z" fill="#F05835"/>
<path d="M44.2422 22.9078V9.09234C44.2422 8.50193 44.3624 7.91153 44.6029 7.67537C44.9635 7.20304 45.3242 7.08496 45.6849 7.08496C46.1658 7.08496 46.5264 7.20304 46.7669 7.55729C47.0073 7.91153 47.1276 8.38385 47.1276 8.97426V22.7898C47.1276 23.3802 47.0073 23.9706 46.7669 24.2067C46.5264 24.6791 46.1658 24.7971 45.6849 24.7971C45.3242 24.7971 44.9635 24.6791 44.6029 24.3248C44.3624 23.9706 44.2422 23.4982 44.2422 22.9078Z" fill="#373736"/>
<path d="M51.5756 10.3914C51.2149 10.3914 50.8543 10.2733 50.4936 10.0372C50.2531 9.80099 50.0127 9.32867 50.0127 8.85634C50.0127 8.38402 50.1329 8.02978 50.4936 7.79361C50.734 7.55745 51.0947 7.32129 51.4554 7.32129C51.8161 7.32129 52.1767 7.43937 52.4172 7.67553C52.6576 7.9117 52.8981 8.38402 52.8981 8.85634C52.8981 9.32867 52.7779 9.68291 52.5374 10.0372C52.297 10.2733 51.9363 10.3914 51.5756 10.3914ZM53.0183 13.6977V22.908C53.0183 23.4984 52.8981 24.0888 52.6576 24.325C52.4172 24.6792 52.0565 24.7973 51.5756 24.7973C51.2149 24.7973 50.8543 24.6792 50.4936 24.325C50.2531 23.9707 50.1329 23.4984 50.1329 22.908V13.8158C50.1329 13.2253 50.2531 12.753 50.4936 12.3988C50.734 12.0445 51.0947 11.9265 51.5756 11.9265C51.9363 11.9265 52.297 12.0445 52.6576 12.3988C52.7779 12.6349 53.0183 13.1073 53.0183 13.6977Z" fill="#373736"/>
<path d="M65.4011 18.5387V22.7897C65.4011 23.4981 65.2809 23.9705 65.0404 24.3247C64.8 24.679 64.4393 24.797 63.9584 24.797C63.4775 24.797 63.1168 24.679 62.8764 24.3247C62.636 23.9705 62.5157 23.4981 62.5157 22.7897V17.7122C62.5157 16.8856 62.5157 16.2952 62.3955 15.8229C62.3955 15.3505 62.1551 14.9963 62.0348 14.7601C61.7944 14.524 61.4337 14.2878 60.9528 14.2878C59.991 14.2878 59.3899 14.6421 59.1495 15.3505C58.909 16.059 58.6686 17.1218 58.6686 18.4207V22.7897C58.6686 23.4981 58.5483 23.9705 58.3079 24.3247C58.0675 24.679 57.7068 24.797 57.2259 24.797C56.745 24.797 56.3843 24.679 56.1439 24.3247C55.9034 23.9705 55.7832 23.4981 55.7832 22.7897V13.6974C55.7832 13.107 55.9034 12.6347 56.1439 12.2804C56.3843 11.9262 56.745 11.8081 57.1057 11.8081C57.4663 11.8081 57.827 11.9262 58.0675 12.2804C58.3079 12.5166 58.4281 12.9889 58.4281 13.4612V13.8155C58.909 13.107 59.5101 12.6347 59.991 12.3985C60.5922 12.0443 61.1933 11.9262 61.9146 11.9262C62.636 11.9262 63.2371 12.0443 63.718 12.3985C64.1989 12.7528 64.6798 13.2251 65.0404 13.8155C65.5213 13.107 66.0022 12.6347 66.6033 12.3985C67.2045 12.0443 67.8056 11.9262 68.4067 11.9262C69.2483 11.9262 69.8494 12.0443 70.4505 12.3985C71.0516 12.7528 71.4123 13.2251 71.773 13.8155C72.0134 14.4059 72.1336 15.3505 72.1336 16.5314V22.7897C72.1336 23.4981 72.0134 23.9705 71.773 24.3247C71.5325 24.679 71.1718 24.797 70.6909 24.797C70.2101 24.797 69.8494 24.679 69.6089 24.3247C69.3685 23.9705 69.2483 23.4981 69.2483 22.7897V17.3579C69.2483 16.6494 69.2483 16.1771 69.128 15.7048C69.0078 15.2325 68.8876 14.9963 68.6471 14.6421C68.4067 14.4059 68.046 14.1697 67.5651 14.1697C67.2045 14.1697 66.8438 14.2878 66.4831 14.524C66.1224 14.7601 65.882 15.1144 65.6415 15.5867C65.5213 16.2952 65.4011 17.2398 65.4011 18.5387Z" fill="#373736"/>
<path d="M82.1125 23.0259C81.3912 23.6163 80.79 24.0886 80.0687 24.3248C79.4676 24.679 78.7462 24.7971 77.9047 24.7971C77.1833 24.7971 76.5822 24.679 75.9811 24.3248C75.38 23.9705 75.0193 23.6163 74.6586 23.0259C74.298 22.4355 74.1777 21.8451 74.1777 21.2547C74.1777 20.4281 74.4182 19.6015 74.8991 19.0111C75.38 18.4207 76.1013 17.9484 76.9429 17.7122C77.1833 17.7122 77.544 17.5942 78.2653 17.358C78.9867 17.2399 79.5878 17.0038 80.0687 16.8857C80.5496 16.7676 81.1507 16.5314 81.7518 16.4134C81.7518 15.5868 81.5114 14.9964 81.2709 14.5241C81.0305 14.1698 80.4294 13.9336 79.5878 13.9336C78.8665 13.9336 78.2653 14.0517 77.9047 14.2879C77.544 14.5241 77.1833 14.8783 76.9429 15.3506C76.7024 15.8229 76.462 16.0591 76.3418 16.2953C76.2215 16.4134 75.9811 16.5314 75.6204 16.5314C75.2597 16.5314 75.0193 16.4134 74.7789 16.1772C74.5384 15.941 74.4182 15.7049 74.4182 15.3506C74.4182 14.7602 74.5384 14.2879 74.8991 13.6975C75.2597 13.2252 75.8609 12.7528 76.5822 12.3986C77.3036 12.0444 78.2653 11.9263 79.3474 11.9263C80.5496 11.9263 81.6316 12.0444 82.3529 12.3986C83.0743 12.7528 83.5552 13.2252 83.9159 13.9336C84.1563 14.6421 84.3967 15.5868 84.3967 16.7676C84.3967 17.4761 84.3967 18.1846 84.3967 18.6569C84.3967 19.1292 84.3967 19.7196 84.3967 20.4281C84.3967 21.0185 84.517 21.6089 84.6372 22.3174C84.7574 23.0259 84.8776 23.3801 84.8776 23.6163C84.8776 23.9705 84.7574 24.2067 84.517 24.561C84.2765 24.7971 83.9159 24.9152 83.5552 24.9152C83.3147 24.9152 82.9541 24.7971 82.7136 24.4429C82.8338 24.0886 82.4732 23.6163 82.1125 23.0259ZM81.9923 18.4207C81.6316 18.5388 80.9103 18.775 80.1889 19.0111C79.3473 19.2473 78.8665 19.3654 78.5058 19.4835C78.1451 19.6015 77.9047 19.7196 77.6642 19.9558C77.4238 20.1919 77.3036 20.5462 77.3036 21.0185C77.3036 21.4908 77.4238 21.9632 77.7844 22.1993C78.1451 22.5536 78.5058 22.6717 79.1069 22.6717C79.708 22.6717 80.1889 22.5536 80.6698 22.1993C81.1507 21.9632 81.5114 21.6089 81.7518 21.1366C81.9923 20.6643 82.1125 19.8377 82.1125 18.775V18.4207H81.9923Z" fill="#373736"/>
<path d="M94.8568 23.3802L92.3321 18.775L90.7692 20.4281V23.0259C90.7692 23.6163 90.6489 24.0887 90.2883 24.4429C90.0478 24.7971 89.6871 24.9152 89.3265 24.9152C88.8456 24.9152 88.4849 24.7971 88.2445 24.4429C88.004 24.0887 87.8838 23.6163 87.8838 23.0259V9.3285C87.8838 8.62002 88.004 8.02961 88.2445 7.67537C88.4849 7.32112 88.8456 7.08496 89.3265 7.08496C89.8074 7.08496 90.168 7.20304 90.4085 7.55729C90.6489 7.91153 90.7692 8.38385 90.7692 9.09234V16.8857L94.0152 13.1071C94.3759 12.6348 94.7365 12.2805 94.977 12.1625C95.2174 12.0444 95.4579 11.9263 95.6983 11.9263C96.059 11.9263 96.2994 12.0444 96.5399 12.2805C96.7803 12.5167 96.9005 12.8709 96.9005 13.2252C96.9005 13.6975 96.5399 14.2879 95.6983 15.1145L94.1354 16.6495L97.0208 21.8451C97.2612 22.1994 97.3814 22.5536 97.5017 22.6717C97.6219 22.9078 97.6219 23.0259 97.6219 23.2621C97.6219 23.7344 97.5017 24.2067 97.2612 24.4429C97.0208 24.6791 96.6601 24.9152 96.2994 24.9152C95.9388 24.9152 95.6983 24.7971 95.4579 24.561C95.3376 24.3248 95.0972 23.9706 94.8568 23.3802Z" fill="#373736"/>
<path d="M101.829 24.7969C101.349 24.7969 100.988 24.6788 100.747 24.3246C100.387 23.9703 100.267 23.6161 100.267 23.0257C100.267 22.5534 100.387 22.081 100.747 21.8449C100.988 21.4906 101.469 21.3726 101.829 21.3726C102.19 21.3726 102.671 21.4906 102.912 21.8449C103.272 22.1991 103.392 22.5534 103.392 23.0257C103.392 23.6161 103.272 23.9703 102.912 24.3246C102.671 24.6788 102.31 24.7969 101.829 24.7969Z" fill="#373736"/>
<path d="M113.972 23.0259C113.251 23.6163 112.649 24.0886 111.928 24.3248C111.327 24.679 110.606 24.7971 109.764 24.7971C109.043 24.7971 108.442 24.679 107.84 24.3248C107.239 23.9705 106.879 23.6163 106.518 23.0259C106.278 22.4355 106.037 21.8451 106.037 21.2547C106.037 20.4281 106.278 19.6015 106.758 19.0111C107.239 18.4207 107.961 17.9484 108.802 17.7122C109.043 17.7122 109.403 17.5942 110.125 17.358C110.846 17.2399 111.447 17.0038 111.928 16.8857C112.409 16.7676 113.01 16.5314 113.611 16.4134C113.611 15.5868 113.371 14.9964 113.13 14.5241C112.89 14.1698 112.289 13.9336 111.447 13.9336C110.726 13.9336 110.125 14.0517 109.764 14.2879C109.403 14.5241 109.043 14.8783 108.802 15.3506C108.562 15.8229 108.321 16.0591 108.201 16.2953C108.321 16.4134 108.201 16.5314 107.84 16.5314C107.48 16.5314 107.239 16.4134 106.999 16.1772C106.758 15.941 106.638 15.7049 106.638 15.3506C106.638 14.7602 106.758 14.2879 107.119 13.6975C107.48 13.2252 108.081 12.7528 108.802 12.3986C109.524 12.0444 110.485 11.9263 111.567 11.9263C112.77 11.9263 113.852 12.0444 114.573 12.3986C115.294 12.7528 115.775 13.2252 116.136 13.9336C116.376 14.6421 116.617 15.5868 116.617 16.7676C116.617 17.4761 116.617 18.1846 116.617 18.6569C116.617 19.1292 116.617 19.7196 116.617 20.4281C116.617 21.0185 116.737 21.6089 116.857 22.3174C116.977 23.0259 117.098 23.3801 117.098 23.6163C117.098 23.9705 116.977 24.2067 116.737 24.561C116.497 24.7971 116.136 24.9152 115.775 24.9152C115.535 24.9152 115.174 24.7971 114.934 24.4429C114.573 24.0886 114.212 23.6163 113.972 23.0259ZM113.731 18.4207C113.371 18.5388 112.649 18.775 111.928 19.0111C111.086 19.2473 110.606 19.3654 110.245 19.4835C109.884 19.6015 109.644 19.7196 109.403 19.9558C109.163 20.1919 109.043 20.5462 109.043 21.0185C109.043 21.4908 109.163 21.9632 109.524 22.1993C109.884 22.5536 110.245 22.6717 110.846 22.6717C111.447 22.6717 111.928 22.5536 112.409 22.1993C112.89 21.9632 113.251 21.6089 113.491 21.1366C113.731 20.6643 113.852 19.8377 113.852 18.775V18.4207H113.731Z" fill="#373736"/>
<path d="M127.196 15.4689L121.907 21.9633H127.557C128.038 21.9633 128.399 22.0814 128.639 22.3176C128.88 22.5537 129 22.908 129 23.2622C129 23.6165 128.88 23.9707 128.639 24.0888C128.399 24.325 128.038 24.443 127.557 24.443H119.743C119.141 24.443 118.781 24.325 118.54 24.0888C118.3 23.8526 118.18 23.4984 118.18 23.0261C118.18 22.7899 118.3 22.4357 118.42 22.1995C118.661 21.9633 119.021 21.3729 119.622 20.6644C120.223 19.8379 120.825 19.1294 121.306 18.539C121.786 17.9486 122.267 17.3582 122.748 16.7678C123.229 16.1774 123.59 15.705 123.83 15.3508C124.071 14.9965 124.311 14.6423 124.552 14.4061H120.344C119.743 14.4061 119.262 14.4061 119.021 14.2881C118.661 14.17 118.54 13.8157 118.54 13.3434C118.54 12.9892 118.661 12.6349 118.901 12.5168C119.141 12.2807 119.502 12.1626 119.863 12.1626H126.475C127.076 12.1626 127.557 12.2807 127.918 12.5168C128.279 12.753 128.399 13.1072 128.399 13.5796C128.399 13.6977 128.399 13.9338 128.278 14.17C128.158 14.4061 128.158 14.5242 128.038 14.6423C127.918 14.7604 127.798 14.8785 127.677 15.1146C127.557 15.1146 127.437 15.2327 127.196 15.4689Z" fill="#373736"/>
</g>
<defs>
<clipPath id="clip0">
<rect width="129" height="32" fill="white"/>
</clipPath>
</defs>
</svg>
