<svg width="16" height="13" viewBox="0 0 16 13" fill="none" xmlns="http://www.w3.org/2000/svg">
<path d="M14.5712 12.5713C14.9309 12.5713 15.2425 12.4525 15.5075 12.218L10.9744 7.68481C10.8656 7.76269 10.7602 7.83842 10.6606 7.91044C10.3214 8.16037 10.0461 8.35541 9.83467 8.49516C9.62328 8.63524 9.34203 8.77801 8.99094 8.92378C8.63963 9.06972 8.31233 9.14246 8.00871 9.14246H7.99982H7.99093C7.68729 9.14246 7.35999 9.06975 7.0087 8.92378C6.65741 8.77801 6.37616 8.63524 6.16498 8.49516C5.95359 8.35541 5.67841 8.1604 5.339 7.91044C5.24442 7.8411 5.13952 7.76502 5.02611 7.68359L0.492188 12.218C0.757085 12.4525 1.06892 12.5713 1.42855 12.5713H14.5712Z" fill="#F05835"/>
<path d="M0.901882 4.82962C0.562678 4.60347 0.261876 4.34447 0 4.05273V10.9497L3.99542 6.95426C3.19611 6.39623 2.16624 5.68883 0.901882 4.82962Z" fill="#F05835"/>
<path d="M15.1068 4.82962C13.8907 5.65275 12.8571 6.36137 12.0059 6.95585L15.9997 10.9498V4.05273C15.7436 4.3386 15.446 4.59743 15.1068 4.82962Z" fill="#F05835"/>
<path d="M14.5721 0H1.42946C0.970949 0 0.61844 0.154831 0.371495 0.464172C0.124347 0.77366 0.000976562 1.16071 0.000976562 1.62488C0.000976562 1.99981 0.164696 2.40606 0.49199 2.84374C0.819284 3.28125 1.16755 3.6249 1.53662 3.87486C1.73894 4.01781 2.34909 4.44199 3.36705 5.14723C3.91657 5.52804 4.39445 5.85995 4.80511 6.14637C5.15515 6.39027 5.45703 6.60148 5.70627 6.77676C5.73488 6.79683 5.77988 6.82902 5.8396 6.87172C5.90395 6.91794 5.98537 6.97659 6.08582 7.04912C6.27926 7.18902 6.43996 7.30211 6.56795 7.3885C6.69576 7.47492 6.85062 7.57145 7.03229 7.67864C7.21382 7.78569 7.38503 7.86618 7.54573 7.91972C7.70646 7.97323 7.85525 8.00007 7.99213 8.00007H8.00102H8.0099C8.14675 8.00007 8.29557 7.97323 8.45633 7.91972C8.617 7.86618 8.78807 7.78586 8.96974 7.67864C9.15124 7.57145 9.30589 7.47472 9.43412 7.3885C9.5621 7.30211 9.7228 7.18905 9.91627 7.04912C10.0165 6.97659 10.0979 6.91791 10.1623 6.87187C10.222 6.82899 10.267 6.79701 10.2958 6.77676C10.49 6.64166 10.7925 6.43131 11.1993 6.14884C11.9396 5.63453 13.0297 4.87754 14.4744 3.87486C14.9088 3.57139 15.2718 3.20517 15.5636 2.77673C15.8548 2.34828 16.0008 1.89887 16.0008 1.42863C16.0008 1.03574 15.8592 0.699556 15.5767 0.419553C15.2939 0.1399 14.959 0 14.5721 0Z" fill="#F05835"/>
</svg>
