<svg width="16" height="16" viewBox="0 0 16 16" fill="none" xmlns="http://www.w3.org/2000/svg">
<path d="M15.7067 1.59698C15.5222 1.45967 15.2838 1.41773 15.0636 1.48382L11.1514 2.65754V15.8117L15.4815 14.5127C15.7892 14.4204 15.9999 14.1372 15.9999 13.8161V2.18045C15.9999 1.95058 15.8911 1.73424 15.7067 1.59698Z" fill="#F05835"/>
<path d="M8.37396 1.55756L6.30273 0.314453V13.647L9.69667 15.6834V2.3515L8.37546 1.55857C8.37493 1.55828 8.37449 1.5579 8.37396 1.55756Z" fill="#F05835"/>
<path d="M0 2.18099V13.8174C0 14.0472 0.108703 14.2636 0.293139 14.4008C0.420121 14.4953 0.572752 14.5446 0.727321 14.5446C0.797236 14.5446 0.867636 14.5345 0.936242 14.5139L4.84848 13.3403V0.185547L0.518303 1.48441C0.210715 1.57663 0 1.85978 0 2.18099Z" fill="#F05835"/>
</svg>
