<svg width="72" height="56" viewBox="0 0 72 56" fill="none" xmlns="http://www.w3.org/2000/svg">
<g clip-path="url(#clip0)">
<path d="M70.5348 55.2141V55.3598H70.6692C70.6989 55.3598 70.7243 55.3527 70.7427 55.3414C70.7597 55.3301 70.7696 55.3103 70.7696 55.2862C70.7696 55.2622 70.7597 55.2438 70.7427 55.2325C70.7243 55.2197 70.6989 55.2141 70.6692 55.2141H70.5348ZM70.6706 55.1122C70.7399 55.1122 70.7937 55.1278 70.8319 55.1589C70.87 55.19 70.8884 55.2325 70.8884 55.2862C70.8884 55.3315 70.8743 55.3683 70.8432 55.398C70.8135 55.4262 70.771 55.4446 70.7144 55.4517L70.8927 55.6568H70.754L70.5885 55.4531H70.5348V55.6568H70.4188V55.1122H70.6706ZM70.6352 55.8449C70.6989 55.8449 70.7583 55.8322 70.812 55.8081C70.8672 55.7841 70.9153 55.7516 70.9563 55.7105C70.9974 55.6695 71.0299 55.6214 71.054 55.5649C71.0766 55.5097 71.0893 55.4503 71.0893 55.3866C71.0893 55.323 71.0766 55.2636 71.054 55.2084C71.0299 55.1533 70.9974 55.1038 70.9563 55.0627C70.9153 55.0217 70.8672 54.9892 70.812 54.9651C70.7583 54.9425 70.6989 54.9312 70.6352 54.9312C70.5716 54.9312 70.5107 54.9425 70.4556 54.9651C70.399 54.9892 70.3495 55.0217 70.3084 55.0627C70.2674 55.1038 70.2349 55.1533 70.2122 55.2084C70.1882 55.2636 70.1769 55.323 70.1769 55.3866C70.1769 55.4503 70.1882 55.5097 70.2122 55.5649C70.2349 55.6214 70.2674 55.6695 70.3084 55.7105C70.3495 55.7516 70.399 55.7841 70.4556 55.8081C70.5107 55.8322 70.5716 55.8449 70.6352 55.8449ZM70.6352 54.7996C70.7187 54.7996 70.7951 54.8152 70.8686 54.8463C70.9408 54.876 71.003 54.9185 71.0582 54.9722C71.112 55.0245 71.1544 55.0868 71.1855 55.1589C71.2166 55.2296 71.2322 55.306 71.2322 55.3866C71.2322 55.4673 71.2166 55.5436 71.1855 55.6144C71.1544 55.6851 71.112 55.7473 71.0582 55.8011C71.003 55.8534 70.9408 55.8958 70.8686 55.927C70.7951 55.9581 70.7187 55.9736 70.6352 55.9736C70.5503 55.9736 70.4725 55.9581 70.399 55.927C70.3254 55.8958 70.2617 55.8534 70.208 55.8011C70.1542 55.7473 70.1118 55.6851 70.0807 55.6144C70.0495 55.5436 70.034 55.4673 70.034 55.3866C70.034 55.306 70.0495 55.2296 70.0807 55.1589C70.1118 55.0868 70.1542 55.0245 70.208 54.9722C70.2617 54.9185 70.3254 54.876 70.399 54.8463C70.4725 54.8152 70.5503 54.7996 70.6352 54.7996ZM15.5184 52.702C15.5184 51.6638 16.1989 50.8109 17.3108 50.8109C18.3732 50.8109 19.0905 51.6271 19.0905 52.702C19.0905 53.777 18.3732 54.5931 17.3108 54.5931C16.1989 54.5931 15.5184 53.7402 15.5184 52.702ZM20.3014 52.702V49.7487H19.0169V50.4658C18.6095 49.934 17.9913 49.6002 17.151 49.6002C15.4944 49.6002 14.1957 50.8986 14.1957 52.702C14.1957 54.5069 15.4944 55.8039 17.151 55.8039C17.9913 55.8039 18.6095 55.4701 19.0169 54.9383V55.6554H20.3014V52.702ZM63.709 52.702C63.709 51.6638 64.3895 50.8109 65.5014 50.8109C66.5652 50.8109 67.281 51.6271 67.281 52.702C67.281 53.777 66.5652 54.5931 65.5014 54.5931C64.3895 54.5931 63.709 53.7402 63.709 52.702ZM68.4934 52.702V47.3767H67.2075V50.4658C66.8001 49.934 66.1818 49.6002 65.3415 49.6002C63.685 49.6002 62.3863 50.8986 62.3863 52.702C62.3863 54.5069 63.685 55.8039 65.3415 55.8039C66.1818 55.8039 66.8001 55.4701 67.2075 54.9383V55.6554H68.4934V52.702ZM36.2461 50.7501C37.0737 50.7501 37.6056 51.2692 37.7414 52.1829H34.6758C34.8131 51.33 35.3308 50.7501 36.2461 50.7501ZM36.2716 49.6002C34.54 49.6002 33.3291 50.8604 33.3291 52.702C33.3291 54.5804 34.5895 55.8039 36.3579 55.8039C37.2477 55.8039 38.0625 55.5818 38.7798 54.9765L38.1503 54.0245C37.6551 54.4192 37.0242 54.6426 36.4314 54.6426C35.6039 54.6426 34.8498 54.2593 34.6645 53.1957H39.0514C39.0641 53.0358 39.0769 52.8746 39.0769 52.702C39.0641 50.8604 37.9267 49.6002 36.2716 49.6002ZM51.782 52.702C51.782 51.6638 52.4624 50.8109 53.5744 50.8109C54.6368 50.8109 55.354 51.6271 55.354 52.702C55.354 53.777 54.6368 54.5931 53.5744 54.5931C52.4624 54.5931 51.782 53.7402 51.782 52.702ZM56.565 52.702V49.7487H55.2804V50.4658C54.8716 49.934 54.2548 49.6002 53.4145 49.6002C51.7579 49.6002 50.4593 50.8986 50.4593 52.702C50.4593 54.5069 51.7579 55.8039 53.4145 55.8039C54.2548 55.8039 54.8716 55.4701 55.2804 54.9383V55.6554H56.565V52.702ZM44.5276 52.702C44.5276 54.4941 45.7753 55.8039 47.6794 55.8039C48.5693 55.8039 49.162 55.6059 49.8043 55.0995L49.1875 54.0613C48.7051 54.4078 48.1986 54.5931 47.6412 54.5931C46.6156 54.5804 45.8616 53.8392 45.8616 52.702C45.8616 51.5648 46.6156 50.8236 47.6412 50.8109C48.1986 50.8109 48.7051 50.9962 49.1875 51.3427L49.8043 50.3045C49.162 49.7982 48.5693 49.6002 47.6794 49.6002C45.7753 49.6002 44.5276 50.9099 44.5276 52.702ZM61.0891 49.6002C60.3478 49.6002 59.8654 49.9467 59.5315 50.4658V49.7487H58.2583V55.6554H59.5442V52.3442C59.5442 51.3668 59.9644 50.8236 60.8047 50.8236C61.065 50.8236 61.3366 50.8604 61.6082 50.9722L62.0043 49.7614C61.72 49.6497 61.3494 49.6002 61.0891 49.6002ZM26.6547 50.2183C26.0365 49.8109 25.1849 49.6002 24.2455 49.6002C22.7488 49.6002 21.7854 50.3173 21.7854 51.4913C21.7854 52.4545 22.5026 53.0486 23.8239 53.2339L24.4308 53.3201C25.1353 53.4192 25.4678 53.6044 25.4678 53.9383C25.4678 54.3951 24.9981 54.6554 24.121 54.6554C23.2312 54.6554 22.5889 54.3711 22.1561 54.0373L21.5506 55.0373C22.2551 55.5564 23.1449 55.8039 24.1083 55.8039C25.8144 55.8039 26.8032 55.0005 26.8032 53.876C26.8032 52.8378 26.0252 52.2947 24.7392 52.1094L24.1338 52.0217C23.5778 51.9481 23.1322 51.8378 23.1322 51.4418C23.1322 51.0089 23.5523 50.7501 24.2568 50.7501C25.0108 50.7501 25.7408 51.0344 26.0987 51.2565L26.6547 50.2183ZM43.2289 49.6002C42.4876 49.6002 42.0052 49.9467 41.6728 50.4658V49.7487H40.3996V55.6554H41.6841V52.3442C41.6841 51.3668 42.1042 50.8236 42.9446 50.8236C43.2049 50.8236 43.4765 50.8604 43.7481 50.9722L44.1442 49.7614C43.8598 49.6497 43.4892 49.6002 43.2289 49.6002ZM32.2667 49.7487H30.1659V47.9566H28.8672V49.7487H27.669V50.9227H28.8672V53.6172C28.8672 54.9878 29.3991 55.8039 30.9185 55.8039C31.4759 55.8039 32.1181 55.6313 32.5255 55.347L32.1549 54.2466C31.7715 54.4687 31.3514 54.5804 31.0175 54.5804C30.3753 54.5804 30.1659 54.1844 30.1659 53.5917V50.9227H32.2667V49.7487ZM13.0598 55.6554V51.9481C13.0598 50.5521 12.1699 49.6129 10.7355 49.6002C9.98145 49.5874 9.20338 49.8222 8.65874 50.6511C8.25131 49.9962 7.60905 49.6002 6.7065 49.6002C6.07556 49.6002 5.45876 49.7854 4.97636 50.4771V49.7487H3.69043V55.6554H4.98768V52.3809C4.98768 51.3555 5.55637 50.8109 6.43488 50.8109C7.28792 50.8109 7.7194 51.3668 7.7194 52.3682V55.6554H9.01806V52.3809C9.01806 51.3555 9.6108 50.8109 10.4638 50.8109C11.3409 50.8109 11.7611 51.3668 11.7611 52.3682V55.6554H13.0598Z" fill="#373736"/>
<path d="M71.3266 36.0122V35.1494H71.1016L70.8413 35.742L70.5825 35.1494H70.3561V36.0122H70.516V35.3616L70.7593 35.9231H70.9248L71.1681 35.3602V36.0122H71.3266ZM69.8992 36.0122V35.2965H70.1878V35.1508H69.4521V35.2965H69.7407V36.0122H69.8992Z" fill="#F79410"/>
<path d="M45.7493 39.7232H26.2812V4.74121H45.7493V39.7232Z" fill="#FF5F00"/>
<path d="M27.5275 22.2293C27.5275 15.133 30.8505 8.81188 36.0254 4.73828C32.2411 1.75947 27.4652 -0.0184841 22.2748 -0.0184841C9.98703 -0.0184841 0.0263672 9.94202 0.0263672 22.2293C0.0263672 34.5165 9.98703 44.4771 22.2748 44.4771C27.4652 44.4771 32.2411 42.6991 36.0254 39.7203C30.8505 35.6467 27.5275 29.3255 27.5275 22.2293Z" fill="#EB001B"/>
<path d="M72.0053 22.2293C72.0053 34.5165 62.0446 44.4771 49.7568 44.4771C44.5664 44.4771 39.7905 42.6991 36.0049 39.7203C41.1811 35.6467 44.5042 29.3255 44.5042 22.2293C44.5042 15.133 41.1811 8.81188 36.0049 4.73828C39.7905 1.75947 44.5664 -0.0184841 49.7568 -0.0184841C62.0446 -0.0184841 72.0053 9.94202 72.0053 22.2293Z" fill="#F79E1B"/>
</g>
<defs>
<clipPath id="clip0">
<rect width="72" height="56" fill="white"/>
</clipPath>
</defs>
</svg>
