<svg width="36" height="28" viewBox="0 0 36 28" fill="none" xmlns="http://www.w3.org/2000/svg">
<g clip-path="url(#clip0)">
<path d="M35.2679 27.6075V27.6804H35.3351C35.3499 27.6804 35.3627 27.6768 35.3719 27.6712C35.3803 27.6655 35.3853 27.6556 35.3853 27.6436C35.3853 27.6316 35.3803 27.6224 35.3719 27.6167C35.3627 27.6104 35.3499 27.6075 35.3351 27.6075H35.2679ZM35.3358 27.5566C35.3704 27.5566 35.3973 27.5644 35.4164 27.5799C35.4355 27.5955 35.4447 27.6167 35.4447 27.6436C35.4447 27.6662 35.4376 27.6846 35.4221 27.6995C35.4072 27.7136 35.386 27.7228 35.3577 27.7263L35.4468 27.8289H35.3775L35.2948 27.727H35.2679V27.8289H35.2099V27.5566H35.3358ZM35.3181 27.9229C35.3499 27.9229 35.3796 27.9166 35.4065 27.9046C35.4341 27.8925 35.4581 27.8763 35.4787 27.8558C35.4992 27.8353 35.5154 27.8112 35.5275 27.7829C35.5388 27.7553 35.5452 27.7256 35.5452 27.6938C35.5452 27.662 35.5388 27.6323 35.5275 27.6047C35.5154 27.5771 35.4992 27.5524 35.4787 27.5319C35.4581 27.5113 35.4341 27.4951 35.4065 27.4831C35.3796 27.4717 35.3499 27.4661 35.3181 27.4661C35.2863 27.4661 35.2559 27.4717 35.2283 27.4831C35.2 27.4951 35.1752 27.5113 35.1547 27.5319C35.1342 27.5524 35.1179 27.5771 35.1066 27.6047C35.0946 27.6323 35.0889 27.662 35.0889 27.6938C35.0889 27.7256 35.0946 27.7553 35.1066 27.7829C35.1179 27.8112 35.1342 27.8353 35.1547 27.8558C35.1752 27.8763 35.2 27.8925 35.2283 27.9046C35.2559 27.9166 35.2863 27.9229 35.3181 27.9229ZM35.3181 27.4003C35.3598 27.4003 35.398 27.4081 35.4348 27.4236C35.4709 27.4385 35.502 27.4597 35.5296 27.4866C35.5565 27.5128 35.5777 27.5439 35.5932 27.5799C35.6088 27.6153 35.6166 27.6535 35.6166 27.6938C35.6166 27.7341 35.6088 27.7723 35.5932 27.8077C35.5777 27.843 35.5565 27.8741 35.5296 27.901C35.502 27.9272 35.4709 27.9484 35.4348 27.964C35.398 27.9795 35.3598 27.9873 35.3181 27.9873C35.2757 27.9873 35.2368 27.9795 35.2 27.964C35.1632 27.9484 35.1314 27.9272 35.1045 27.901C35.0776 27.8741 35.0564 27.843 35.0408 27.8077C35.0253 27.7723 35.0175 27.7341 35.0175 27.6938C35.0175 27.6535 35.0253 27.6153 35.0408 27.5799C35.0564 27.5439 35.0776 27.5128 35.1045 27.4866C35.1314 27.4597 35.1632 27.4385 35.2 27.4236C35.2368 27.4081 35.2757 27.4003 35.3181 27.4003ZM7.75971 26.3515C7.75971 25.8324 8.09994 25.4059 8.6559 25.4059C9.18711 25.4059 9.54572 25.814 9.54572 26.3515C9.54572 26.889 9.18711 27.2971 8.6559 27.2971C8.09994 27.2971 7.75971 26.8706 7.75971 26.3515ZM10.1512 26.3515V24.8748H9.50894V25.2334C9.30523 24.9675 8.99613 24.8006 8.57597 24.8006C7.74769 24.8006 7.09835 25.4498 7.09835 26.3515C7.09835 27.2539 7.74769 27.9024 8.57597 27.9024C8.99613 27.9024 9.30523 27.7355 9.50894 27.4696V27.8282H10.1512V26.3515ZM31.855 26.3515C31.855 25.8324 32.1952 25.4059 32.7512 25.4059C33.2831 25.4059 33.641 25.814 33.641 26.3515C33.641 26.889 33.2831 27.2971 32.7512 27.2971C32.1952 27.2971 31.855 26.8706 31.855 26.3515ZM34.2472 26.3515V23.6888H33.6042V25.2334C33.4005 24.9675 33.0914 24.8006 32.6713 24.8006C31.843 24.8006 31.1936 25.4498 31.1936 26.3515C31.1936 27.2539 31.843 27.9024 32.6713 27.9024C33.0914 27.9024 33.4005 27.7355 33.6042 27.4696V27.8282H34.2472V26.3515ZM18.1235 25.3755C18.5373 25.3755 18.8033 25.6351 18.8712 26.092H17.3384C17.407 25.6655 17.6659 25.3755 18.1235 25.3755ZM18.1363 24.8006C17.2705 24.8006 16.665 25.4307 16.665 26.3515C16.665 27.2907 17.2953 27.9024 18.1794 27.9024C18.6243 27.9024 19.0318 27.7914 19.3904 27.4887L19.0756 27.0128C18.8281 27.2101 18.5126 27.3218 18.2162 27.3218C17.8024 27.3218 17.4254 27.1302 17.3327 26.5983H19.5262C19.5326 26.5184 19.5389 26.4378 19.5389 26.3515C19.5326 25.4307 18.9639 24.8006 18.1363 24.8006ZM25.8915 26.3515C25.8915 25.8324 26.2317 25.4059 26.7877 25.4059C27.3189 25.4059 27.6775 25.814 27.6775 26.3515C27.6775 26.889 27.3189 27.2971 26.7877 27.2971C26.2317 27.2971 25.8915 26.8706 25.8915 26.3515ZM28.283 26.3515V24.8748H27.6407V25.2334C27.4363 24.9675 27.1279 24.8006 26.7077 24.8006C25.8794 24.8006 25.2301 25.4498 25.2301 26.3515C25.2301 27.2539 25.8794 27.9024 26.7077 27.9024C27.1279 27.9024 27.4363 27.7355 27.6407 27.4696V27.8282H28.283V26.3515ZM22.2643 26.3515C22.2643 27.2476 22.8881 27.9024 23.8402 27.9024C24.2851 27.9024 24.5815 27.8034 24.9026 27.5502L24.5942 27.0311C24.353 27.2044 24.0998 27.2971 23.8211 27.2971C23.3083 27.2907 22.9313 26.9201 22.9313 26.3515C22.9313 25.7829 23.3083 25.4123 23.8211 25.4059C24.0998 25.4059 24.353 25.4986 24.5942 25.6719L24.9026 25.1528C24.5815 24.8996 24.2851 24.8006 23.8402 24.8006C22.8881 24.8006 22.2643 25.4555 22.2643 26.3515ZM30.545 24.8006C30.1744 24.8006 29.9332 24.9738 29.7662 25.2334V24.8748H29.1296V27.8282H29.7726V26.1726C29.7726 25.6839 29.9827 25.4123 30.4028 25.4123C30.533 25.4123 30.6688 25.4307 30.8046 25.4866L31.0027 24.8812C30.8605 24.8253 30.6752 24.8006 30.545 24.8006ZM13.3278 25.1096C13.0187 24.9059 12.5929 24.8006 12.1232 24.8006C11.3749 24.8006 10.8932 25.1591 10.8932 25.7461C10.8932 26.2277 11.2518 26.5248 11.9125 26.6174L12.2159 26.6606C12.5682 26.7101 12.7344 26.8027 12.7344 26.9696C12.7344 27.198 12.4995 27.3282 12.061 27.3282C11.6161 27.3282 11.295 27.186 11.0785 27.0191L10.7758 27.5191C11.128 27.7787 11.5729 27.9024 12.0546 27.9024C12.9077 27.9024 13.4021 27.5007 13.4021 26.9385C13.4021 26.4194 13.0131 26.1478 12.3701 26.0552L12.0674 26.0113C11.7894 25.9746 11.5666 25.9194 11.5666 25.7214C11.5666 25.505 11.7767 25.3755 12.1289 25.3755C12.5059 25.3755 12.8709 25.5177 13.0499 25.6287L13.3278 25.1096ZM21.6149 24.8006C21.2443 24.8006 21.0031 24.9738 20.8369 25.2334V24.8748H20.2003V27.8282H20.8425V26.1726C20.8425 25.6839 21.0526 25.4123 21.4728 25.4123C21.6029 25.4123 21.7387 25.4307 21.8745 25.4866L22.0726 24.8812C21.9304 24.8253 21.7451 24.8006 21.6149 24.8006ZM16.1338 24.8748H15.0834V23.9788H14.4341V24.8748H13.835V25.4618H14.4341V26.8091C14.4341 27.4944 14.7001 27.9024 15.4597 27.9024C15.7384 27.9024 16.0596 27.8162 16.2633 27.674L16.0779 27.1238C15.8863 27.2348 15.6762 27.2907 15.5092 27.2907C15.1881 27.2907 15.0834 27.0927 15.0834 26.7963V25.4618H16.1338V24.8748ZM6.53037 27.8282V25.9746C6.53037 25.2765 6.08545 24.8069 5.36822 24.8006C4.99121 24.7942 4.60218 24.9116 4.32986 25.326C4.12614 24.9986 3.80501 24.8006 3.35374 24.8006C3.03827 24.8006 2.72987 24.8932 2.48867 25.239V24.8748H1.8457V27.8282H2.49433V26.191C2.49433 25.6782 2.77867 25.4059 3.21793 25.4059C3.64445 25.4059 3.86019 25.6839 3.86019 26.1846V27.8282H4.50952V26.191C4.50952 25.6782 4.80589 25.4059 5.23241 25.4059C5.67096 25.4059 5.88103 25.6839 5.88103 26.1846V27.8282H6.53037Z" fill="white"/>
<path d="M35.6638 18.0068V17.5754H35.5513L35.4212 17.8718L35.2917 17.5754H35.1785V18.0068H35.2585V17.6815L35.3801 17.9623H35.4629L35.5846 17.6808V18.0068H35.6638ZM34.9501 18.0068V17.649H35.0944V17.5761H34.7266V17.649H34.8709V18.0068H34.9501Z" fill="#F79410"/>
<path d="M22.8747 19.8621H13.1406V2.37109H22.8747V19.8621Z" fill="#FF5F00"/>
<path d="M13.7642 11.1154C13.7642 7.56724 15.4257 4.40667 18.0132 2.36987C16.1211 0.880466 13.7331 -0.0085115 11.1379 -0.0085115C4.994 -0.0085115 0.0136719 4.97174 0.0136719 11.1154C0.0136719 17.259 4.994 22.2393 11.1379 22.2393C13.7331 22.2393 16.1211 21.3503 18.0132 19.8609C15.4257 17.8241 13.7642 14.6635 13.7642 11.1154Z" fill="#EB001B"/>
<path d="M36.0031 11.1154C36.0031 17.259 31.0228 22.2393 24.8789 22.2393C22.2837 22.2393 19.8958 21.3503 18.0029 19.8609C20.5911 17.8241 22.2526 14.6635 22.2526 11.1154C22.2526 7.56724 20.5911 4.40667 18.0029 2.36987C19.8958 0.880466 22.2837 -0.0085115 24.8789 -0.0085115C31.0228 -0.0085115 36.0031 4.97174 36.0031 11.1154Z" fill="#F79E1B"/>
</g>
<defs>
<clipPath id="clip0">
<rect width="36" height="28" fill="white"/>
</clipPath>
</defs>
</svg>
