<svg width="16" height="16" viewBox="0 0 16 16" fill="none" xmlns="http://www.w3.org/2000/svg">
<path d="M15.8983 7.68857C15.7554 7.49304 12.3496 2.90088 7.99992 2.90088C3.65019 2.90088 0.244313 7.49304 0.101531 7.68839C-0.0338438 7.87389 -0.0338438 8.12548 0.101531 8.31098C0.244313 8.50651 3.65019 13.0987 7.99992 13.0987C12.3496 13.0987 15.7554 8.50648 15.8983 8.31114C16.0339 8.12567 16.0339 7.87389 15.8983 7.68857ZM7.99992 12.0437C4.79588 12.0437 2.02085 8.99583 1.19938 7.99942C2.01979 7.00214 4.78901 3.95582 7.99992 3.95582C11.2038 3.95582 13.9787 7.0032 14.8005 8.00014C13.9801 8.99739 11.2108 12.0437 7.99992 12.0437Z" fill="#BDBDBD"/>
<path d="M7.9998 4.83496C6.25474 4.83496 4.83496 6.25474 4.83496 7.99981C4.83496 9.74488 6.25474 11.1647 7.9998 11.1647C9.74487 11.1647 11.1646 9.74488 11.1646 7.99981C11.1646 6.25474 9.74487 4.83496 7.9998 4.83496ZM7.9998 10.1097C6.83637 10.1097 5.88993 9.16322 5.88993 7.99981C5.88993 6.8364 6.8364 5.88993 7.9998 5.88993C9.16321 5.88993 10.1097 6.8364 10.1097 7.99981C10.1097 9.16322 9.16324 10.1097 7.9998 10.1097Z" fill="#BDBDBD"/>
</svg>
