<svg width="14" height="13" viewBox="0 0 14 13" fill="none" xmlns="http://www.w3.org/2000/svg">
<path d="M7.99843 11.9151C7.99843 12.4681 7.55153 12.9149 6.99858 12.9149C6.72281 12.9149 6.47249 12.8032 6.29147 12.6222C6.11045 12.4412 5.99873 12.1909 5.99873 11.9151L5.99944 7.66468L1.74902 7.66539C1.47325 7.66539 1.22294 7.55367 1.04192 7.37265C0.860899 7.19163 0.749176 6.94131 0.749176 6.66554C0.749176 6.11258 1.19607 5.66569 1.74903 5.66569L5.99944 5.66498L6.00015 1.41457C6.00015 0.86161 6.44704 0.414718 7 0.414718C7.55296 0.414717 7.99985 0.861608 7.99985 1.41457L7.99914 5.66498L12.2496 5.66427C12.8025 5.66427 13.2494 6.11116 13.2494 6.66412C13.2494 7.21708 12.8025 7.66397 12.2496 7.66397L7.99914 7.66468L7.99843 11.9151Z" fill="#00B569"/>
</svg>
