<svg width="17" height="16" viewBox="0 0 17 16" fill="none" xmlns="http://www.w3.org/2000/svg">
<path d="M12.5513 1.44034C12.5138 1.28242 12.4722 1.16606 12.4556 1.04554C12.3889 0.575926 12.6721 0.143718 13.1175 0.0315102C13.5797 -0.0890093 14.0418 0.143718 14.2042 0.600861C14.3832 1.09541 14.5414 1.59411 14.708 2.09281C14.837 2.4793 14.9703 2.8658 15.0952 3.25229C15.2992 3.89645 14.8828 4.4658 14.2042 4.46995C13.359 4.47411 12.5097 4.47411 11.6645 4.47411C11.1524 4.47411 10.7944 4.21645 10.6861 3.77593C10.5862 3.36865 10.7944 2.99047 11.2607 2.74112C11.1982 2.69956 11.1482 2.658 11.09 2.62476C7.46362 0.513588 2.72982 2.65385 1.92212 6.76813C1.24348 10.2092 3.42927 13.4383 6.89323 14.1115C10.1573 14.7474 13.4714 12.5115 14.0834 9.24917C14.1584 8.8419 14.1834 8.42632 14.2125 8.01489C14.2458 7.53696 14.5622 7.17541 15.0202 7.12969C15.474 7.08398 15.8945 7.36658 15.9778 7.80709C16.0236 8.04813 16.0069 8.3058 15.9903 8.55099C15.8154 10.7162 14.9369 12.5448 13.3091 13.9951C12.0517 15.1172 10.5737 15.7572 8.9 15.9484C4.83651 16.4055 1.11025 13.7292 0.198464 9.77697C-0.800756 5.44658 2.08033 1.00398 6.43109 0.189432C8.57525 -0.209529 10.5612 0.172809 12.3931 1.34891C12.4347 1.37385 12.4764 1.39463 12.5513 1.44034Z" fill="#9B9B9B"/>
</svg>
