<svg width="96" height="103" viewBox="0 0 96 103" fill="none" xmlns="http://www.w3.org/2000/svg">
<path d="M95.2341 36.5699C93.9918 67.5729 74.4255 93.5978 47.6171 103C20.8087 93.5978 1.24237 67.5729 0 36.5699C0 36.5699 0.281377 16.8434 0.89607 10.1165C0.995633 9.00828 1.92633 8.16416 3.03884 8.16416C10.3242 8.15117 36.9465 7.61007 46.3098 0.441542C46.6994 0.147182 47.1582 0 47.6171 0C48.0759 0 48.5348 0.147182 48.9244 0.441542C58.2876 7.61007 84.9099 8.15117 92.1953 8.16416C93.3078 8.16416 94.2385 9.00828 94.3381 10.1165C94.9528 16.8439 95.2341 36.5699 95.2341 36.5699Z" fill="url(#paint0_linear)"/>
<path d="M95.2343 36.5699C93.9919 67.5729 74.4256 93.5978 47.6172 103V0C48.076 0 48.5349 0.147182 48.9245 0.441542C58.2877 7.61007 84.91 8.15117 92.1954 8.16416C93.3079 8.16416 94.2386 9.00828 94.3382 10.1165C94.9529 16.8439 95.2343 36.5699 95.2343 36.5699Z" fill="url(#paint1_linear)"/>
<path d="M47.6169 89.0328C38.6221 84.9988 30.773 78.5731 24.7261 70.2514C17.6035 60.4492 13.5491 48.7462 12.9902 36.3869C13.0656 31.2638 13.1963 25.6099 13.3521 20.8742C17.3463 20.672 21.9552 20.3266 26.5927 19.7404C35.3265 18.6353 42.2431 16.9471 47.6169 14.5723C52.9912 16.9475 59.9078 18.6362 68.6425 19.7404C73.2791 20.327 77.888 20.672 81.8817 20.8742C82.0376 25.6095 82.1683 31.2638 82.2436 36.3869C81.6848 48.7462 77.6304 60.4492 70.5078 70.2514C64.4608 78.5731 56.6118 84.9984 47.6169 89.0328Z" fill="#FF4D4D"/>
<path d="M47.6172 14.5723C52.9914 16.9475 59.908 18.6362 68.6427 19.7404C73.2793 20.327 77.8882 20.672 81.882 20.8742C82.0378 25.6095 82.1686 31.2638 82.2439 36.3869C81.685 48.7462 77.6307 60.4492 70.508 70.2514C64.4611 78.5731 56.612 84.9984 47.6172 89.0328V14.5723Z" fill="#FF9494"/>
<path d="M63.7804 46.9921C65.2302 38.049 59.1556 29.6239 50.2125 28.1741C41.2694 26.7244 32.8443 32.799 31.3945 41.7421C29.9448 50.6852 36.0194 59.1103 44.9625 60.5601C53.9056 62.0098 62.3307 55.9352 63.7804 46.9921Z" fill="white"/>
<path fill-rule="evenodd" clip-rule="evenodd" d="M47.5713 48.7609C47.5865 48.761 47.6017 48.7611 47.6169 48.7611C47.6321 48.7611 47.6472 48.761 47.6624 48.7609C48.8959 48.7853 49.8912 49.796 49.8912 51.0348C49.8912 52.2304 50.86 53.1992 52.0556 53.1992C53.2513 53.1992 54.22 52.2304 54.22 51.0348C54.22 49.3276 53.5688 47.7697 52.5017 46.5964C53.5688 45.423 54.22 43.8651 54.22 42.1579C54.22 38.5169 51.2578 35.5547 47.6169 35.5547C43.9759 35.5547 41.0137 38.5169 41.0137 42.1579C41.0137 43.8651 41.6649 45.423 42.732 46.5964C41.6649 47.7697 41.0137 49.3276 41.0137 51.0348C41.0137 52.2304 41.9825 53.1992 43.1781 53.1992C44.3737 53.1992 45.3425 52.2304 45.3425 51.0348C45.3425 49.7956 46.3378 48.7852 47.5713 48.7609ZM47.6622 44.4318C47.6471 44.4317 47.632 44.4316 47.6169 44.4316C47.6017 44.4316 47.5866 44.4317 47.5716 44.4318C46.3379 44.4076 45.3425 43.3968 45.3425 42.1579C45.3425 40.9034 46.3628 39.8835 47.6169 39.8835C48.8709 39.8835 49.8912 40.9034 49.8912 42.1579C49.8912 43.3972 48.8958 44.4076 47.6622 44.4318Z" fill="url(#paint2_linear)"/>
<defs>
<linearGradient id="paint0_linear" x1="47.6171" y1="0" x2="47.6171" y2="103" gradientUnits="userSpaceOnUse">
<stop stop-color="#FC8D5D"/>
<stop offset="1" stop-color="#F08F35"/>
</linearGradient>
<linearGradient id="paint1_linear" x1="71.4257" y1="0" x2="71.4257" y2="103" gradientUnits="userSpaceOnUse">
<stop stop-color="#FC7B5D"/>
<stop offset="1" stop-color="#F05835"/>
</linearGradient>
<linearGradient id="paint2_linear" x1="47.6169" y1="44.4316" x2="47.6169" y2="53.1992" gradientUnits="userSpaceOnUse">
<stop stop-color="#FC7B5D"/>
<stop offset="1" stop-color="#F05835"/>
</linearGradient>
</defs>
</svg>
