<svg width="32" height="32" viewBox="0 0 32 32" fill="none" xmlns="http://www.w3.org/2000/svg">
<path d="M16 32C24.8366 32 32 24.8366 32 16C32 7.16344 24.8366 0 16 0C7.16344 0 0 7.16344 0 16C0 24.8366 7.16344 32 16 32Z" fill="#D80027"/>
<path d="M21.7978 11.5732L23.784 14.3102L27.0006 13.2672L25.0113 16.0019L26.9972 18.7387L23.7818 17.6918L21.7926 20.4264L21.7946 17.0449L18.5791 15.998L21.7958 14.955L21.7978 11.5732Z" fill="#F0F0F0"/>
<path d="M16.3771 22.841C12.5989 22.841 9.53598 19.778 9.53598 15.9999C9.53598 12.2217 12.5989 9.15882 16.3771 9.15882C17.5551 9.15882 18.6635 9.45677 19.6312 9.98109C18.113 8.49635 16.0368 7.58008 13.7459 7.58008C9.09572 7.58008 5.32617 11.3497 5.32617 15.9998C5.32617 20.6499 9.09582 24.4195 13.7459 24.4195C16.037 24.4195 18.1131 23.5032 19.6312 22.0185C18.6635 22.543 17.5551 22.841 16.3771 22.841Z" fill="#F0F0F0"/>
</svg>
