<svg width="24" height="25" viewBox="0 0 24 25" fill="none" xmlns="http://www.w3.org/2000/svg">
<circle cx="12" cy="12.9902" r="12" fill="#1DA1F2"/>
<path d="M17.3337 9.35412C16.9529 9.55328 16.3795 9.64532 16.1893 9.67184C16.1878 9.66265 16.1862 9.65385 16.1846 9.64506C16.831 9.24528 17.0288 8.4926 17.0288 8.4926C16.6285 8.72144 16.2757 8.8484 16.01 8.91877C15.8606 8.95881 15.7386 8.98047 15.6509 8.99255C15.2481 8.57952 14.6857 8.32324 14.0631 8.32324C12.8382 8.32324 11.845 9.31618 11.845 10.5415C11.845 10.5856 11.8462 10.6295 11.8491 10.6729C11.855 10.7791 11.8685 10.8835 11.8894 10.985C11.2965 10.9762 9.15635 10.7944 7.38291 8.73431C7.38291 8.73431 6.39536 10.4573 8.05563 11.6343C8.05563 11.6343 7.38291 11.6133 7.0258 11.3611C7.0258 11.3611 6.92077 13.0214 8.83299 13.5466C8.83299 13.5466 8.16066 13.7149 7.82417 13.5677C7.82417 13.5677 8.16053 14.9966 9.84168 15.1019C9.84168 15.1019 8.63593 16.2058 6.66699 16.0469C7.63538 16.6601 8.78349 17.0149 10.0145 17.0149C13.4756 17.0149 16.2815 14.2092 16.2815 10.748C16.2815 10.7048 16.2811 10.6616 16.2802 10.6184C16.2811 10.5928 16.2815 10.5674 16.2815 10.5415C16.2815 10.5235 16.2811 10.5055 16.2809 10.4875C16.9208 10.0611 17.3337 9.35412 17.3337 9.35412Z" fill="white"/>
</svg>
