<svg width="18" height="24" viewBox="0 0 18 24" fill="none" xmlns="http://www.w3.org/2000/svg">
<path d="M8.72849 13.8083C4.9215 13.8083 1.82422 10.7113 1.82422 6.90402C1.82422 3.09703 4.9215 0 8.72849 0C12.5355 0 15.6328 3.09703 15.6328 6.90402C15.6328 10.7113 12.5355 13.8083 8.72849 13.8083Z" fill="#F05835"/>
<path d="M0.972968 23.9998C0.714777 23.9998 0.467227 23.8972 0.284796 23.7148C0.102364 23.5324 0 23.2848 0 23.0269C0 18.4032 3.76138 14.6416 8.38501 14.6416H9.07293C13.6966 14.6416 17.4582 18.4032 17.4582 23.0269C17.4582 23.564 17.0226 23.9998 16.4852 23.9998H0.972968Z" fill="#F05835"/>
</svg>
