<svg width="104" height="32" viewBox="0 0 104 32" fill="none" xmlns="http://www.w3.org/2000/svg">
<g clip-path="url(#clip0)">
<path d="M45.0673 31.5384H36.6426L41.912 0.561523H50.3363L45.0673 31.5384Z" fill="#1B4DA2"/>
<path d="M75.6078 1.31881C73.9461 0.692035 71.3105 0 68.0515 0C59.7318 0 53.8732 4.2179 53.8372 10.2482C53.7681 14.6974 58.0319 17.1686 61.2208 18.6521C64.4802 20.168 65.5882 21.1574 65.5882 22.5086C65.555 24.5838 62.9544 25.5404 60.5288 25.5404C57.1653 25.5404 55.363 25.0472 52.6242 23.8927L51.5149 23.3978L50.3359 30.3514C52.3119 31.2072 55.9523 31.9667 59.7318 32C68.5716 32 74.3267 27.8474 74.3948 21.4211C74.4285 17.8948 72.177 15.1928 67.3232 12.9848C64.3766 11.5675 62.572 10.6118 62.572 9.16157C62.6066 7.8432 64.0983 6.49285 67.4245 6.49285C70.1633 6.42672 72.1757 7.05261 73.7001 7.67895L74.4621 8.00788L75.6078 1.31881Z" fill="#1B4DA2"/>
<path d="M86.804 20.5644C87.4978 18.7848 90.1675 11.8973 90.1675 11.8973C90.1325 11.9634 90.8599 10.0849 91.2759 8.93163L91.8647 11.6008C91.8647 11.6008 93.4601 19.0156 93.8065 20.5644C92.4899 20.5644 88.468 20.5644 86.804 20.5644ZM97.2032 0.561523H90.6867C88.6772 0.561523 87.1504 1.12128 86.2834 3.13168L73.7695 31.5379H82.6093C82.6093 31.5379 84.0647 27.7146 84.3775 26.8912C85.3473 26.8912 93.9466 26.8912 95.1941 26.8912C95.436 27.9788 96.1994 31.5379 96.1994 31.5379H104L97.2032 0.561523Z" fill="#1B4DA2"/>
<path d="M29.6046 0.561523L21.354 21.6848L20.4524 17.4007C18.9271 12.4575 14.1432 7.08679 8.80469 4.41633L16.3619 31.5055H25.2708L38.5131 0.561523H29.6046Z" fill="#1B4DA2"/>
<path d="M13.6932 0.561523H0.138669L0 1.18742C10.5734 3.75802 17.576 9.95434 20.453 17.402L17.5064 3.16541C17.0213 1.18698 15.5305 0.626785 13.6932 0.561523Z" fill="#FAA61A"/>
</g>
<defs>
<clipPath id="clip0">
<rect width="104" height="32" fill="white"/>
</clipPath>
</defs>
</svg>
