<svg width="52" height="16" viewBox="0 0 52 16" fill="none" xmlns="http://www.w3.org/2000/svg">
<g clip-path="url(#clip0)">
<path d="M22.5337 15.7697H18.3213L20.956 0.28125H25.1681L22.5337 15.7697Z" fill="white"/>
<path d="M37.8039 0.659404C36.9731 0.346017 35.6552 0 34.0258 0C29.8659 0 26.9366 2.10895 26.9186 5.12412C26.8841 7.3487 29.0159 8.58429 30.6104 9.32603C32.2401 10.084 32.7941 10.5787 32.7941 11.2543C32.7775 12.2919 31.4772 12.7702 30.2644 12.7702C28.5826 12.7702 27.6815 12.5236 26.3121 11.9463L25.7574 11.6989L25.168 15.1757C26.1559 15.6036 27.9761 15.9834 29.8659 16C34.2858 16 37.1633 13.9237 37.1974 10.7105C37.2142 8.94739 36.0885 7.59639 33.6616 6.49242C32.1883 5.78374 31.286 5.30589 31.286 4.58078C31.3033 3.9216 32.0491 3.24643 33.7123 3.24643C35.0817 3.21336 36.0878 3.52631 36.8501 3.83947L37.2311 4.00394L37.8039 0.659404Z" fill="white"/>
<path d="M43.402 10.2827C43.7489 9.39288 45.0838 5.94914 45.0838 5.94914C45.0662 5.98221 45.43 5.04292 45.638 4.4663L45.9324 5.80088C45.9324 5.80088 46.73 9.50829 46.9033 10.2827C46.2449 10.2827 44.234 10.2827 43.402 10.2827ZM48.6016 0.28125H45.3434C44.3386 0.28125 43.5752 0.561129 43.1417 1.56633L36.8848 15.7694H41.3047C41.3047 15.7694 42.0323 13.8578 42.1887 13.4461C42.6736 13.4461 46.9733 13.4461 47.5971 13.4461C47.718 13.9899 48.0997 15.7694 48.0997 15.7694H51.9999L48.6016 0.28125Z" fill="white"/>
<path d="M14.8023 0.28125L10.677 10.8429L10.2262 8.70085C9.46354 6.22924 7.07161 3.54388 4.40234 2.20865L8.18096 15.7532H12.6354L19.2565 0.28125H14.8023Z" fill="white"/>
<path d="M6.84662 0.28125H0.0693343L0 0.594198C5.2867 1.8795 8.78799 4.97766 10.2265 8.7015L8.7532 1.58319C8.51065 0.593979 7.76524 0.313881 6.84662 0.28125Z" fill="#FAA61A"/>
</g>
<defs>
<clipPath id="clip0">
<rect width="52" height="16" fill="white"/>
</clipPath>
</defs>
</svg>
