<svg width="16" height="16" viewBox="0 0 16 16" fill="none" xmlns="http://www.w3.org/2000/svg">
<path fill-rule="evenodd" clip-rule="evenodd" d="M8.284 0.088L15.784 5.25467C15.9193 5.348 16 5.502 16 5.66667V15.3333C16 15.7013 15.7013 16 15.3333 16H14V8C14 7.632 13.7013 7.33333 13.3333 7.33333H2.66667C2.29867 7.33333 2 7.632 2 8V16H0.666667C0.298667 16 0 15.7013 0 15.3333V5.66667C0 5.502 0.0806667 5.348 0.216667 5.25467L7.71667 0.088C7.888 -0.0293333 8.11333 -0.0293333 8.284 0.088ZM6.16699 13.166V12.666H7.33366C7.51766 12.666 7.66699 12.8153 7.66699 12.9993V15.666C7.66699 15.85 7.51766 15.9993 7.33366 15.9993H4.00033C3.81633 15.9993 3.66699 15.85 3.66699 15.666V12.9993C3.66699 12.8153 3.81633 12.666 4.00033 12.666H5.16699V13.166C5.16699 13.442 5.39099 13.666 5.66699 13.666C5.94299 13.666 6.16699 13.442 6.16699 13.166ZM10.833 12.666V13.166C10.833 13.442 10.609 13.666 10.333 13.666C10.057 13.666 9.83301 13.442 9.83301 13.166V12.666H8.66634C8.48234 12.666 8.33301 12.8153 8.33301 12.9993V15.666C8.33301 15.85 8.48234 15.9993 8.66634 15.9993H11.9997C12.1837 15.9993 12.333 15.85 12.333 15.666V12.9993C12.333 12.8153 12.1837 12.666 11.9997 12.666H10.833ZM8.5 9.16601V8.66602H9.66667C9.85067 8.66602 10 8.81535 10 8.99935V11.666C10 11.85 9.85067 11.9993 9.66667 11.9993H6.33333C6.14933 11.9993 6 11.85 6 11.666V8.99935C6 8.81535 6.14933 8.66602 6.33333 8.66602H7.5V9.16601C7.5 9.44201 7.724 9.66601 8 9.66601C8.276 9.66601 8.5 9.44201 8.5 9.16601Z" fill="#F05835"/>
</svg>
