<svg width="24" height="25" viewBox="0 0 24 25" fill="none" xmlns="http://www.w3.org/2000/svg">
<circle cx="12" cy="12.9902" r="12" fill="#FF0000"/>
<path fill-rule="evenodd" clip-rule="evenodd" d="M17.114 15.2989C17.3336 14.4642 17.3336 12.7332 17.3336 12.7332C17.3336 12.7332 17.3425 10.9936 17.114 10.1589C16.991 9.70199 16.6307 9.34162 16.1738 9.21867C15.3391 8.99023 12.0004 8.99023 12.0004 8.99023C12.0004 8.99023 8.66159 8.99023 7.82689 9.20995C7.37874 9.33289 7.00965 9.70199 6.8867 10.1589C6.66699 10.9936 6.66699 12.7244 6.66699 12.7244C6.66699 12.7244 6.66699 14.4642 6.8867 15.29C7.00978 15.7469 7.37002 16.1073 7.82689 16.2302C8.67031 16.4586 12.0004 16.4586 12.0004 16.4586C12.0004 16.4586 15.3391 16.4586 16.1738 16.2389C16.6307 16.116 16.991 15.7557 17.114 15.2989ZM13.7137 12.7243L10.9373 14.3234V11.1253L13.7137 12.7243Z" fill="white"/>
</svg>
